<svg width="853" height="145" viewBox="0 0 853 145" fill="none" xmlns="http://www.w3.org/2000/svg">
<g clip-path="url(#clip0)">
<path d="M232.407 116.95C221.86 116.95 213.04 113.404 205.947 106.31C198.947 99.2169 195.447 90.4436 195.447 79.9902C195.447 69.5369 198.947 60.7636 205.947 53.6702C213.04 46.5769 221.86 43.0302 232.407 43.0302C239.22 43.0302 245.427 44.6636 251.027 47.9302C256.627 51.1969 260.874 55.5836 263.767 61.0902L248.227 70.1902C246.827 67.2969 244.68 65.0102 241.787 63.3302C238.987 61.6502 235.814 60.8102 232.267 60.8102C226.854 60.8102 222.374 62.6302 218.827 66.2702C215.28 69.8169 213.507 74.3902 213.507 79.9902C213.507 85.4969 215.28 90.0702 218.827 93.7102C222.374 97.2569 226.854 99.0302 232.267 99.0302C235.907 99.0302 239.127 98.2369 241.927 96.6502C244.82 94.9702 246.967 92.6836 248.367 89.7902L264.047 98.7502C260.967 104.257 256.627 108.69 251.027 112.05C245.427 115.317 239.22 116.95 232.407 116.95ZM332.145 106.31C324.958 113.404 316.185 116.95 305.825 116.95C295.465 116.95 286.692 113.404 279.505 106.31C272.412 99.1236 268.865 90.3502 268.865 79.9902C268.865 69.6302 272.412 60.9036 279.505 53.8102C286.692 46.6236 295.465 43.0302 305.825 43.0302C316.185 43.0302 324.958 46.6236 332.145 53.8102C339.332 60.9036 342.925 69.6302 342.925 79.9902C342.925 90.3502 339.332 99.1236 332.145 106.31ZM292.245 93.8502C295.885 97.4902 300.412 99.3102 305.825 99.3102C311.238 99.3102 315.765 97.4902 319.405 93.8502C323.045 90.2102 324.865 85.5902 324.865 79.9902C324.865 74.3902 323.045 69.7702 319.405 66.1302C315.765 62.4902 311.238 60.6702 305.825 60.6702C300.412 60.6702 295.885 62.4902 292.245 66.1302C288.698 69.7702 286.925 74.3902 286.925 79.9902C286.925 85.5902 288.698 90.2102 292.245 93.8502ZM401.83 44.9902H419.89V114.99H401.83V107.15C397.443 113.684 390.49 116.95 380.97 116.95C373.317 116.95 366.97 114.384 361.93 109.25C356.983 104.117 354.51 97.0236 354.51 87.9702V44.9902H372.57V85.7302C372.57 90.3969 373.83 93.9902 376.35 96.5102C378.87 98.9369 382.23 100.15 386.43 100.15C391.097 100.15 394.83 98.7036 397.63 95.8102C400.43 92.9169 401.83 88.5769 401.83 82.7902V44.9902ZM454.491 57.0302C456.171 52.5502 458.924 49.1902 462.751 46.9502C466.671 44.7102 471.011 43.5902 475.771 43.5902V63.7502C470.264 63.0969 465.318 64.2169 460.931 67.1102C456.638 70.0036 454.491 74.8102 454.491 81.5302V114.99H436.431V44.9902H454.491V57.0302ZM500.806 64.8702C500.806 66.7369 502.019 68.2769 504.446 69.4902C506.966 70.6102 509.999 71.6369 513.546 72.5702C517.092 73.4102 520.639 74.5302 524.186 75.9302C527.732 77.2369 530.719 79.4769 533.146 82.6502C535.666 85.8236 536.926 89.7902 536.926 94.5502C536.926 101.737 534.219 107.29 528.806 111.21C523.486 115.037 516.812 116.95 508.786 116.95C494.412 116.95 484.612 111.397 479.386 100.29L495.066 91.4702C497.119 97.5369 501.692 100.57 508.786 100.57C515.226 100.57 518.446 98.5636 518.446 94.5502C518.446 92.6836 517.186 91.1902 514.666 90.0702C512.239 88.8569 509.252 87.7836 505.706 86.8502C502.159 85.9169 498.612 84.7502 495.066 83.3502C491.519 81.9502 488.486 79.7569 485.966 76.7702C483.539 73.6902 482.326 69.8636 482.326 65.2902C482.326 58.3836 484.846 52.9702 489.886 49.0502C495.019 45.0369 501.366 43.0302 508.926 43.0302C514.619 43.0302 519.799 44.3369 524.466 46.9502C529.132 49.4702 532.819 53.1102 535.526 57.8702L520.126 66.2702C517.886 61.5102 514.152 59.1302 508.926 59.1302C506.592 59.1302 504.632 59.6436 503.046 60.6702C501.552 61.6969 500.806 63.0969 500.806 64.8702ZM562.843 87.4102C565.27 96.1836 571.85 100.57 582.583 100.57C589.49 100.57 594.717 98.2369 598.263 93.5702L612.823 101.97C605.917 111.957 595.743 116.95 582.303 116.95C570.73 116.95 561.443 113.45 554.443 106.45C547.443 99.4502 543.943 90.6302 543.943 79.9902C543.943 69.4436 547.397 60.6702 554.303 53.6702C561.21 46.5769 570.077 43.0302 580.903 43.0302C591.17 43.0302 599.617 46.5769 606.243 53.6702C612.963 60.7636 616.323 69.5369 616.323 79.9902C616.323 82.3236 616.09 84.7969 615.623 87.4102H562.843ZM562.563 73.4102H598.263C597.237 68.6502 595.09 65.1036 591.823 62.7702C588.65 60.4369 585.01 59.2702 580.903 59.2702C576.05 59.2702 572.037 60.5302 568.863 63.0502C565.69 65.4769 563.59 68.9302 562.563 73.4102ZM628.931 114.99V12.7902H646.991V114.99H628.931ZM672.481 36.5902C669.494 36.5902 666.881 35.5169 664.641 33.3702C662.494 31.1302 661.421 28.5169 661.421 25.5302C661.421 22.5436 662.494 19.9302 664.641 17.6902C666.881 15.4502 669.494 14.3302 672.481 14.3302C675.561 14.3302 678.174 15.4502 680.321 17.6902C682.561 19.9302 683.681 22.5436 683.681 25.5302C683.681 28.5169 682.561 31.1302 680.321 33.3702C678.174 35.5169 675.561 36.5902 672.481 36.5902ZM663.521 114.99V44.9902H681.581V114.99H663.521ZM737.031 43.0302C744.684 43.0302 750.984 45.5969 755.931 50.7302C760.971 55.8636 763.491 62.9569 763.491 72.0102V114.99H745.431V74.2502C745.431 69.5836 744.171 66.0369 741.651 63.6102C739.131 61.0902 735.771 59.8302 731.571 59.8302C726.904 59.8302 723.171 61.2769 720.371 64.1702C717.571 67.0636 716.171 71.4036 716.171 77.1902V114.99H698.111V44.9902H716.171V52.8302C720.557 46.2969 727.511 43.0302 737.031 43.0302ZM794.171 87.4102C796.598 96.1836 803.178 100.57 813.911 100.57C820.818 100.57 826.045 98.2369 829.591 93.5702L844.151 101.97C837.245 111.957 827.071 116.95 813.631 116.95C802.058 116.95 792.771 113.45 785.771 106.45C778.771 99.4502 775.271 90.6302 775.271 79.9902C775.271 69.4436 778.725 60.6702 785.631 53.6702C792.538 46.5769 801.405 43.0302 812.231 43.0302C822.498 43.0302 830.945 46.5769 837.571 53.6702C844.291 60.7636 847.651 69.5369 847.651 79.9902C847.651 82.3236 847.418 84.7969 846.951 87.4102H794.171ZM793.891 73.4102H829.591C828.565 68.6502 826.418 65.1036 823.151 62.7702C819.978 60.4369 816.338 59.2702 812.231 59.2702C807.378 59.2702 803.365 60.5302 800.191 63.0502C797.018 65.4769 794.918 68.9302 793.891 73.4102Z" fill="#4F46E5"/>
<path d="M62.0167 101.414L133.251 15.4937C138.033 9.72577 147.41 13.1072 147.41 20.5996L147.41 83.4434C147.409 125.809 117.828 134.676 98.1227 135.169L56.742 135.169C56.742 135.169 44.4264 120.39 62.0167 101.414Z" fill="#4F46E5" fill-opacity="0.51"/>
<path fill-rule="evenodd" clip-rule="evenodd" d="M81.4813 14.864L48.5499 121.504C47.0787 125.475 46.3045 129.036 46.0386 132.214H106.563C121.142 121.789 133.364 103.122 120.566 72.223L96.5162 14.163C93.649 7.24093 83.6921 7.70515 81.4813 14.864Z" fill="#4F46E5" fill-opacity="0.17"/>
<path fill-rule="evenodd" clip-rule="evenodd" d="M96.1533 117.436H94.1826V135.17H60.3851L31.6258 48.4073C29.2684 41.2954 37.1049 35.1355 43.4588 39.1058L96.7534 72.4079C118.834 86.2057 124.264 102.774 122.842 117.436H96.1533Z" fill="#4F46E5" fill-opacity="0.13"/>
<path fill-rule="evenodd" clip-rule="evenodd" d="M126.482 55.598L112.299 96.563L112.299 96.5631L126.483 55.5981L126.482 55.598Z" fill="#E6E5FB" fill-opacity="0.72"/>
<path fill-rule="evenodd" clip-rule="evenodd" d="M8.29767 87.6983L71.2308 89.8959C99.5795 90.8861 112.457 104.605 117.814 119.48C110.624 121.374 100.247 123.864 89.5183 126.303H85.3152V127.252C67.7397 131.191 50.212 134.769 45.0514 135.17H43.3438C38.9371 134.802 35.9681 131.792 33.9777 129.774C33.3723 129.16 32.8574 128.638 32.4202 128.311L2.67863 101.65C-2.88948 96.6592 0.824519 87.4373 8.29767 87.6983Z" fill="#D3D1FF"/>
<path d="M62.4705 108.076L147.385 61.2764V83.4444C147.385 124.037 120.291 135.17 96.1526 135.17L43.2583 135.207C44.8347 117.867 56.0664 111.524 62.4705 108.076Z" fill="#4F46E5"/>
</g>
<defs>
<clipPath id="clip0">
<rect width="853" height="145" fill="white"/>
</clipPath>
</defs>
</svg>
