<svg width="857" height="164" viewBox="0 0 857 164" fill="none" xmlns="http://www.w3.org/2000/svg">
<g clip-path="url(#clip0)">
<path d="M71.151 106.394L143.664 18.9315C148.446 13.1636 157.822 16.5451 157.822 24.0375L157.822 88.1543C157.822 131.154 127.798 140.154 107.798 140.654L65.7973 140.654C65.7973 140.654 53.2973 125.654 71.151 106.394Z" fill="#E6E5FB"/>
<path fill-rule="evenodd" clip-rule="evenodd" d="M91.0046 18.2306L57.4821 126.785C55.9888 130.816 55.203 134.429 54.9331 137.655H116.364C131.161 127.074 143.566 108.128 130.576 76.7658L106.039 17.5296C103.172 10.6075 93.2153 11.0717 91.0046 18.2306Z" fill="white" fill-opacity="0.44"/>
<path fill-rule="evenodd" clip-rule="evenodd" d="M105.798 122.655H103.798V140.655H69.4939L40.1995 52.2786C37.8421 45.1668 45.6786 39.0068 52.0325 42.9772L106.407 76.9538C128.818 90.9582 134.329 107.774 132.886 122.655H105.798Z" fill="#E6E5FB" fill-opacity="0.72"/>
<path fill-rule="evenodd" clip-rule="evenodd" d="M16.2977 92.4612L80.5031 94.7033C109.276 95.7082 122.347 109.633 127.784 124.731C120.486 126.652 109.953 129.18 99.0639 131.655H94.7977V132.618C76.9589 136.617 59.1688 140.249 53.9314 140.655H52.1989C47.726 140.282 44.7125 137.227 42.6922 135.179C42.0778 134.556 41.5552 134.026 41.1114 133.693L10.6786 106.413C5.11053 101.422 8.82451 92.2003 16.2977 92.4612Z" fill="#D3D1FF"/>
<path d="M71.6112 113.155L157.798 65.6554V88.1554C157.798 129.355 130.298 140.655 105.798 140.655L52.1113 140.693C53.7113 123.093 65.1112 116.655 71.6112 113.155Z" fill="white"/>
<path d="M231.96 118.16C221.413 118.16 212.593 114.613 205.5 107.52C198.5 100.427 195 91.6533 195 81.2C195 70.7467 198.5 61.9733 205.5 54.88C212.593 47.7867 221.413 44.24 231.96 44.24C238.773 44.24 244.98 45.8733 250.58 49.14C256.18 52.4067 260.427 56.7933 263.32 62.3L247.78 71.4C246.38 68.5067 244.233 66.22 241.34 64.54C238.54 62.86 235.367 62.02 231.82 62.02C226.407 62.02 221.927 63.84 218.38 67.48C214.833 71.0267 213.06 75.6 213.06 81.2C213.06 86.7067 214.833 91.28 218.38 94.92C221.927 98.4667 226.407 100.24 231.82 100.24C235.46 100.24 238.68 99.4467 241.48 97.86C244.373 96.18 246.52 93.8933 247.92 91L263.6 99.96C260.52 105.467 256.18 109.9 250.58 113.26C244.98 116.527 238.773 118.16 231.96 118.16Z" fill="white"/>
<path d="M331.698 107.52C324.511 114.613 315.738 118.16 305.378 118.16C295.018 118.16 286.245 114.613 279.058 107.52C271.965 100.333 268.418 91.56 268.418 81.2C268.418 70.84 271.965 62.1133 279.058 55.02C286.245 47.8333 295.018 44.24 305.378 44.24C315.738 44.24 324.511 47.8333 331.698 55.02C338.885 62.1133 342.478 70.84 342.478 81.2C342.478 91.56 338.885 100.333 331.698 107.52ZM291.798 95.06C295.438 98.7 299.965 100.52 305.378 100.52C310.791 100.52 315.318 98.7 318.958 95.06C322.598 91.42 324.418 86.8 324.418 81.2C324.418 75.6 322.598 70.98 318.958 67.34C315.318 63.7 310.791 61.88 305.378 61.88C299.965 61.88 295.438 63.7 291.798 67.34C288.251 70.98 286.478 75.6 286.478 81.2C286.478 86.8 288.251 91.42 291.798 95.06Z" fill="white"/>
<path d="M401.383 46.2H419.443V116.2H401.383V108.36C396.996 114.893 390.043 118.16 380.523 118.16C372.87 118.16 366.523 115.593 361.483 110.46C356.536 105.327 354.063 98.2333 354.063 89.18V46.2H372.123V86.94C372.123 91.6067 373.383 95.2 375.903 97.72C378.423 100.147 381.783 101.36 385.983 101.36C390.65 101.36 394.383 99.9133 397.183 97.02C399.983 94.1267 401.383 89.7867 401.383 84V46.2Z" fill="white"/>
<path d="M454.044 58.24C455.724 53.76 458.477 50.4 462.304 48.16C466.224 45.92 470.564 44.8 475.324 44.8V64.96C469.817 64.3067 464.87 65.4267 460.484 68.32C456.19 71.2133 454.044 76.02 454.044 82.74V116.2H435.984V46.2H454.044V58.24Z" fill="white"/>
<path d="M500.359 66.08C500.359 67.9467 501.572 69.4867 503.999 70.7C506.519 71.82 509.552 72.8467 513.099 73.78C516.645 74.62 520.192 75.74 523.739 77.14C527.285 78.4467 530.272 80.6867 532.699 83.86C535.219 87.0333 536.479 91 536.479 95.76C536.479 102.947 533.772 108.5 528.359 112.42C523.039 116.247 516.365 118.16 508.339 118.16C493.965 118.16 484.165 112.607 478.939 101.5L494.619 92.68C496.672 98.7467 501.245 101.78 508.339 101.78C514.779 101.78 517.999 99.7733 517.999 95.76C517.999 93.8933 516.739 92.4 514.219 91.28C511.792 90.0667 508.805 88.9933 505.259 88.06C501.712 87.1267 498.165 85.96 494.619 84.56C491.072 83.16 488.039 80.9667 485.519 77.98C483.092 74.9 481.879 71.0733 481.879 66.5C481.879 59.5933 484.399 54.18 489.439 50.26C494.572 46.2467 500.919 44.24 508.479 44.24C514.172 44.24 519.352 45.5467 524.019 48.16C528.685 50.68 532.372 54.32 535.079 59.08L519.679 67.48C517.439 62.72 513.705 60.34 508.479 60.34C506.145 60.34 504.185 60.8533 502.599 61.88C501.105 62.9067 500.359 64.3067 500.359 66.08Z" fill="white"/>
<path d="M562.396 88.62C564.823 97.3933 571.403 101.78 582.136 101.78C589.043 101.78 594.269 99.4467 597.816 94.78L612.376 103.18C605.469 113.167 595.296 118.16 581.856 118.16C570.283 118.16 560.996 114.66 553.996 107.66C546.996 100.66 543.496 91.84 543.496 81.2C543.496 70.6533 546.949 61.88 553.856 54.88C560.763 47.7867 569.629 44.24 580.456 44.24C590.723 44.24 599.169 47.7867 605.796 54.88C612.516 61.9733 615.876 70.7467 615.876 81.2C615.876 83.5333 615.643 86.0067 615.176 88.62H562.396ZM562.116 74.62H597.816C596.789 69.86 594.643 66.3133 591.376 63.98C588.203 61.6467 584.563 60.48 580.456 60.48C575.603 60.48 571.589 61.74 568.416 64.26C565.243 66.6867 563.143 70.14 562.116 74.62Z" fill="white"/>
<path d="M628.484 116.2V14H646.544V116.2H628.484Z" fill="white"/>
<path d="M672.034 37.8C669.047 37.8 666.434 36.7267 664.194 34.58C662.047 32.34 660.974 29.7267 660.974 26.74C660.974 23.7533 662.047 21.14 664.194 18.9C666.434 16.66 669.047 15.54 672.034 15.54C675.114 15.54 677.727 16.66 679.874 18.9C682.114 21.14 683.234 23.7533 683.234 26.74C683.234 29.7267 682.114 32.34 679.874 34.58C677.727 36.7267 675.114 37.8 672.034 37.8ZM663.074 116.2V46.2H681.134V116.2H663.074Z" fill="white"/>
<path d="M736.583 44.24C744.237 44.24 750.537 46.8067 755.483 51.94C760.523 57.0733 763.043 64.1667 763.043 73.22V116.2H744.983V75.46C744.983 70.7933 743.723 67.2467 741.203 64.82C738.683 62.3 735.323 61.04 731.123 61.04C726.457 61.04 722.723 62.4867 719.923 65.38C717.123 68.2733 715.723 72.6133 715.723 78.4V116.2H697.663V46.2H715.723V54.04C720.11 47.5067 727.063 44.24 736.583 44.24Z" fill="white"/>
<path d="M793.724 88.62C796.151 97.3933 802.731 101.78 813.464 101.78C820.371 101.78 825.598 99.4467 829.144 94.78L843.704 103.18C836.798 113.167 826.624 118.16 813.184 118.16C801.611 118.16 792.324 114.66 785.324 107.66C778.324 100.66 774.824 91.84 774.824 81.2C774.824 70.6533 778.278 61.88 785.184 54.88C792.091 47.7867 800.958 44.24 811.784 44.24C822.051 44.24 830.498 47.7867 837.124 54.88C843.844 61.9733 847.204 70.7467 847.204 81.2C847.204 83.5333 846.971 86.0067 846.504 88.62H793.724ZM793.444 74.62H829.144C828.118 69.86 825.971 66.3133 822.704 63.98C819.531 61.6467 815.891 60.48 811.784 60.48C806.931 60.48 802.918 61.74 799.744 64.26C796.571 66.6867 794.471 70.14 793.444 74.62Z" fill="white"/>
</g>
<defs>
<clipPath id="clip0">
<rect width="856.059" height="163.817" fill="white"/>
</clipPath>
</defs>
</svg>