<svg width="792" height="288" viewBox="0 0 792 288" fill="none" xmlns="http://www.w3.org/2000/svg">
<rect width="792" height="288" fill="white"/>
<rect x="577" y="60" width="87" height="38" rx="19" fill="#23B883" fill-opacity="0.2"/>
<path d="M599.596 72.7806C599.881 71.9057 601.119 71.9057 601.403 72.7806L602.42 75.908C602.482 76.0985 602.603 76.2644 602.765 76.3822C602.927 76.4999 603.122 76.5634 603.322 76.5635H606.611C607.532 76.5635 607.914 77.7415 607.17 78.283L604.51 80.2153C604.347 80.3331 604.226 80.4994 604.164 80.6902C604.102 80.881 604.102 81.0865 604.164 81.2774L605.181 84.4048C605.466 85.2798 604.463 86.0084 603.718 85.4669L601.058 83.5346C600.895 83.4168 600.7 83.3534 600.499 83.3534C600.299 83.3534 600.104 83.4168 599.941 83.5346L597.281 85.4669C596.536 86.0084 595.535 85.2798 595.819 84.4048L596.836 81.2774C596.898 81.0865 596.898 80.881 596.835 80.6902C596.773 80.4994 596.652 80.3331 596.49 80.2153L593.831 78.284C593.087 77.7425 593.47 76.5645 594.389 76.5645H597.677C597.878 76.5645 598.073 76.5011 598.236 76.3834C598.398 76.2656 598.519 76.0996 598.581 75.909L599.597 72.7816L599.596 72.7806Z" fill="#177E5A"/>
<path d="M617.838 83.3011H624.777V86H627.292V83.3011H629.152V81.1349H627.292V71.4545H624.01L617.838 81.206V83.3011ZM624.806 81.1349H620.537V81.0213L624.692 74.4375H624.806V81.1349ZM632.624 86.1562C633.462 86.1562 634.179 85.4602 634.186 84.5938C634.179 83.7415 633.462 83.0455 632.624 83.0455C631.757 83.0455 631.054 83.7415 631.061 84.5938C631.054 85.4602 631.757 86.1562 632.624 86.1562ZM641.693 86.1989C644.768 86.1989 646.913 84.1108 646.913 81.2202C646.913 78.4219 644.967 76.4048 642.325 76.4048C641.146 76.4048 640.102 76.8736 639.562 77.5128H639.477L639.896 73.6562H646.153V71.4545H637.716L636.956 78.9545L639.335 79.3452C639.825 78.8054 640.749 78.4432 641.622 78.4503C643.22 78.4574 644.371 79.6364 644.364 81.2841C644.371 82.9105 643.249 84.0682 641.693 84.0682C640.379 84.0682 639.321 83.2372 639.229 82.044H636.672C636.743 84.4588 638.852 86.1989 641.693 86.1989Z" fill="#177E5A"/>
<rect x="130" y="183" width="99" height="33" rx="16.5" fill="#DDECFF"/>
<path d="M144.035 204.5H145.879V200.175H150.597V204.5H152.446V194.318H150.597V198.629H145.879V194.318H144.035V204.5ZM156.57 204.654C157.769 204.654 158.484 204.092 158.813 203.451H158.872V204.5H160.602V199.389C160.602 197.371 158.957 196.764 157.5 196.764C155.894 196.764 154.661 197.48 154.264 198.872L155.944 199.111C156.123 198.589 156.63 198.141 157.51 198.141C158.345 198.141 158.803 198.569 158.803 199.32V199.349C158.803 199.866 158.261 199.891 156.913 200.036C155.432 200.195 154.015 200.637 154.015 202.357C154.015 203.859 155.114 204.654 156.57 204.654ZM157.038 203.332C156.287 203.332 155.75 202.989 155.75 202.327C155.75 201.636 156.352 201.348 157.157 201.234C157.629 201.169 158.574 201.05 158.808 200.861V201.761C158.808 202.611 158.122 203.332 157.038 203.332ZM162.412 204.5H164.212V200.011C164.212 199.041 164.943 198.355 165.932 198.355C166.235 198.355 166.613 198.41 166.767 198.46V196.804C166.603 196.774 166.32 196.754 166.121 196.754C165.246 196.754 164.515 197.251 164.237 198.136H164.157V196.864H162.412V204.5ZM170.482 204.634C171.795 204.634 172.386 203.854 172.67 203.297H172.779V204.5H174.549V194.318H172.744V198.126H172.67C172.396 197.575 171.834 196.764 170.487 196.764C168.722 196.764 167.335 198.146 167.335 200.692C167.335 203.207 168.682 204.634 170.482 204.634ZM170.984 203.158C169.796 203.158 169.17 202.114 169.17 200.682C169.17 199.26 169.786 198.241 170.984 198.241C172.143 198.241 172.779 199.2 172.779 200.682C172.779 202.163 172.133 203.158 170.984 203.158ZM180.019 204.5H186.681V202.954H181.863V200.175H186.298V198.629H181.863V195.864H186.641V194.318H180.019V204.5ZM189.915 196.864H188.006L190.273 200.682L187.946 204.5H189.855L191.456 201.751L193.072 204.5H194.966L192.624 200.682L194.926 196.864H193.022L191.456 199.683L189.915 196.864ZM198.488 204.654C199.687 204.654 200.402 204.092 200.731 203.451H200.79V204.5H202.52V199.389C202.52 197.371 200.875 196.764 199.418 196.764C197.812 196.764 196.579 197.48 196.182 198.872L197.862 199.111C198.041 198.589 198.548 198.141 199.428 198.141C200.263 198.141 200.721 198.569 200.721 199.32V199.349C200.721 199.866 200.179 199.891 198.831 200.036C197.35 200.195 195.933 200.637 195.933 202.357C195.933 203.859 197.032 204.654 198.488 204.654ZM198.956 203.332C198.205 203.332 197.668 202.989 197.668 202.327C197.668 201.636 198.27 201.348 199.075 201.234C199.547 201.169 200.492 201.05 200.726 200.861V201.761C200.726 202.611 200.04 203.332 198.956 203.332ZM204.33 204.5H206.13V199.857C206.13 198.917 206.756 198.281 207.532 198.281C208.292 198.281 208.814 198.793 208.814 199.578V204.5H210.579V199.737C210.579 198.877 211.091 198.281 211.961 198.281C212.687 198.281 213.264 198.708 213.264 199.653V204.5H215.069V199.374C215.069 197.669 214.084 196.764 212.682 196.764C211.574 196.764 210.728 197.311 210.39 198.161H210.311C210.017 197.296 209.277 196.764 208.248 196.764C207.223 196.764 206.458 197.291 206.14 198.161H206.05V196.864H204.33V204.5Z" fill="#1D7DEF"/>
<rect x="237" y="183" width="51" height="33" rx="16.5" fill="#DDECFF"/>
<path d="M250.205 195.864H253.352V204.5H255.182V195.864H258.329V194.318H250.205V195.864ZM259.972 204.5L260.812 201.989H264.64L265.485 204.5H267.454L263.865 194.318H261.588L258.003 204.5H259.972ZM261.309 200.508L262.686 196.406H262.766L264.143 200.508H261.309ZM274.628 198.882C274.38 197.589 273.346 196.764 271.556 196.764C269.716 196.764 268.463 197.669 268.468 199.081C268.463 200.195 269.15 200.93 270.616 201.234L271.919 201.507C272.62 201.661 272.948 201.945 272.948 202.377C272.948 202.899 272.381 203.292 271.526 203.292C270.701 203.292 270.164 202.934 270.01 202.248L268.255 202.417C268.478 203.819 269.657 204.649 271.531 204.649C273.44 204.649 274.787 203.66 274.792 202.213C274.787 201.124 274.086 200.458 272.645 200.145L271.342 199.866C270.566 199.692 270.258 199.424 270.263 198.982C270.258 198.464 270.83 198.107 271.581 198.107C272.411 198.107 272.848 198.559 272.988 199.061L274.628 198.882Z" fill="#1D7DEF"/>
<rect x="296" y="183" width="133" height="33" rx="16.5" fill="#DDECFF"/>
<path d="M312.378 204.5H318.707V202.954H314.223V194.318H312.378V204.5ZM323.609 204.649C325.389 204.649 326.612 203.779 326.93 202.452L325.25 202.263C325.006 202.909 324.41 203.247 323.634 203.247C322.471 203.247 321.7 202.482 321.685 201.174H327.005V200.622C327.005 197.942 325.394 196.764 323.515 196.764C321.327 196.764 319.9 198.37 319.9 200.727C319.9 203.123 321.307 204.649 323.609 204.649ZM321.69 199.961C321.745 198.987 322.466 198.166 323.54 198.166C324.574 198.166 325.27 198.922 325.28 199.961H321.69ZM331.858 204.649C333.777 204.649 335 203.511 335.13 201.89H333.409C333.255 202.71 332.664 203.183 331.873 203.183C330.75 203.183 330.024 202.243 330.024 200.682C330.024 199.141 330.764 198.216 331.873 198.216C332.738 198.216 333.27 198.773 333.409 199.509H335.13C335.005 197.853 333.713 196.764 331.848 196.764C329.611 196.764 328.199 198.38 328.199 200.712C328.199 203.023 329.576 204.649 331.858 204.649ZM340.421 196.864H338.914V195.034H337.114V196.864H336.031V198.256H337.114V202.501C337.104 203.938 338.149 204.644 339.501 204.604C340.013 204.589 340.366 204.49 340.56 204.425L340.256 203.018C340.157 203.043 339.953 203.088 339.729 203.088C339.277 203.088 338.914 202.929 338.914 202.203V198.256H340.421V196.864ZM346.793 201.288C346.793 202.452 345.963 203.028 345.167 203.028C344.302 203.028 343.725 202.417 343.725 201.447V196.864H341.926V201.726C341.926 203.56 342.97 204.599 344.471 204.599C345.615 204.599 346.42 203.998 346.768 203.143H346.848V204.5H348.593V196.864H346.793V201.288ZM350.443 204.5H352.243V200.011C352.243 199.041 352.974 198.355 353.963 198.355C354.266 198.355 354.644 198.41 354.798 198.46V196.804C354.634 196.774 354.351 196.754 354.152 196.754C353.277 196.754 352.546 197.251 352.268 198.136H352.188V196.864H350.443V204.5ZM359.06 204.649C360.84 204.649 362.063 203.779 362.381 202.452L360.701 202.263C360.457 202.909 359.861 203.247 359.085 203.247C357.922 203.247 357.151 202.482 357.136 201.174H362.456V200.622C362.456 197.942 360.845 196.764 358.966 196.764C356.778 196.764 355.351 198.37 355.351 200.727C355.351 203.123 356.758 204.649 359.06 204.649ZM357.141 199.961C357.196 198.987 357.917 198.166 358.991 198.166C360.025 198.166 360.721 198.922 360.731 199.961H357.141ZM368.893 194.318H366.869L370.454 204.5H372.731L376.32 194.318H374.292L371.647 202.332H371.543L368.893 194.318ZM377.582 204.5H379.382V196.864H377.582V204.5ZM378.487 195.78C379.059 195.78 379.526 195.342 379.526 194.805C379.526 194.263 379.059 193.826 378.487 193.826C377.91 193.826 377.443 194.263 377.443 194.805C377.443 195.342 377.91 195.78 378.487 195.78ZM384.066 204.634C385.379 204.634 385.97 203.854 386.254 203.297H386.363V204.5H388.133V194.318H386.328V198.126H386.254C385.98 197.575 385.418 196.764 384.071 196.764C382.306 196.764 380.919 198.146 380.919 200.692C380.919 203.207 382.266 204.634 384.066 204.634ZM384.568 203.158C383.38 203.158 382.754 202.114 382.754 200.682C382.754 199.26 383.37 198.241 384.568 198.241C385.727 198.241 386.363 199.2 386.363 200.682C386.363 202.163 385.717 203.158 384.568 203.158ZM393.431 204.649C395.211 204.649 396.434 203.779 396.752 202.452L395.072 202.263C394.828 202.909 394.232 203.247 393.456 203.247C392.293 203.247 391.522 202.482 391.507 201.174H396.827V200.622C396.827 197.942 395.216 196.764 393.337 196.764C391.149 196.764 389.723 198.37 389.723 200.727C389.723 203.123 391.13 204.649 393.431 204.649ZM391.512 199.961C391.567 198.987 392.288 198.166 393.362 198.166C394.396 198.166 395.092 198.922 395.102 199.961H391.512ZM401.68 204.649C403.918 204.649 405.34 203.073 405.34 200.712C405.34 198.345 403.918 196.764 401.68 196.764C399.443 196.764 398.021 198.345 398.021 200.712C398.021 203.073 399.443 204.649 401.68 204.649ZM401.69 203.207C400.453 203.207 399.846 202.104 399.846 200.707C399.846 199.31 400.453 198.191 401.69 198.191C402.908 198.191 403.515 199.31 403.515 200.707C403.515 202.104 402.908 203.207 401.69 203.207ZM412.903 198.882C412.654 197.589 411.62 196.764 409.83 196.764C407.991 196.764 406.738 197.669 406.743 199.081C406.738 200.195 407.424 200.93 408.891 201.234L410.193 201.507C410.894 201.661 411.222 201.945 411.222 202.377C411.222 202.899 410.655 203.292 409.8 203.292C408.975 203.292 408.438 202.934 408.284 202.248L406.529 202.417C406.753 203.819 407.931 204.649 409.805 204.649C411.714 204.649 413.062 203.66 413.067 202.213C413.062 201.124 412.361 200.458 410.919 200.145L409.616 199.866C408.841 199.692 408.533 199.424 408.538 198.982C408.533 198.464 409.104 198.107 409.855 198.107C410.685 198.107 411.123 198.559 411.262 199.061L412.903 198.882Z" fill="#1D7DEF"/>
<rect x="437" y="183" width="156" height="33" rx="16.5" fill="#DDECFF"/>
<path d="M451.01 204.5L451.85 201.989H455.678L456.524 204.5H458.492L454.903 194.318H452.626L449.041 204.5H451.01ZM452.347 200.508L453.725 196.406H453.804L455.181 200.508H452.347ZM462.852 204.649C464.771 204.649 465.994 203.511 466.124 201.89H464.403C464.249 202.71 463.658 203.183 462.867 203.183C461.744 203.183 461.018 202.243 461.018 200.682C461.018 199.141 461.759 198.216 462.867 198.216C463.732 198.216 464.264 198.773 464.403 199.509H466.124C465.999 197.853 464.707 196.764 462.842 196.764C460.605 196.764 459.193 198.38 459.193 200.712C459.193 203.023 460.57 204.649 462.852 204.649ZM470.932 204.649C472.851 204.649 474.074 203.511 474.204 201.89H472.484C472.329 202.71 471.738 203.183 470.947 203.183C469.824 203.183 469.098 202.243 469.098 200.682C469.098 199.141 469.839 198.216 470.947 198.216C471.812 198.216 472.344 198.773 472.484 199.509H474.204C474.079 197.853 472.787 196.764 470.922 196.764C468.685 196.764 467.273 198.38 467.273 200.712C467.273 203.023 468.65 204.649 470.932 204.649ZM479.062 204.649C480.842 204.649 482.065 203.779 482.383 202.452L480.703 202.263C480.459 202.909 479.863 203.247 479.087 203.247C477.924 203.247 477.153 202.482 477.138 201.174H482.458V200.622C482.458 197.942 480.847 196.764 478.968 196.764C476.78 196.764 475.353 198.37 475.353 200.727C475.353 203.123 476.76 204.649 479.062 204.649ZM477.143 199.961C477.198 198.987 477.919 198.166 478.993 198.166C480.027 198.166 480.723 198.922 480.733 199.961H477.143ZM490.016 198.882C489.767 197.589 488.733 196.764 486.943 196.764C485.104 196.764 483.851 197.669 483.856 199.081C483.851 200.195 484.537 200.93 486.004 201.234L487.306 201.507C488.007 201.661 488.335 201.945 488.335 202.377C488.335 202.899 487.769 203.292 486.914 203.292C486.088 203.292 485.551 202.934 485.397 202.248L483.642 202.417C483.866 203.819 485.044 204.649 486.919 204.649C488.828 204.649 490.175 203.66 490.18 202.213C490.175 201.124 489.474 200.458 488.032 200.145L486.73 199.866C485.954 199.692 485.646 199.424 485.651 198.982C485.646 198.464 486.218 198.107 486.968 198.107C487.799 198.107 488.236 198.559 488.375 199.061L490.016 198.882ZM497.699 198.882C497.451 197.589 496.417 196.764 494.627 196.764C492.788 196.764 491.535 197.669 491.54 199.081C491.535 200.195 492.221 200.93 493.687 201.234L494.99 201.507C495.691 201.661 496.019 201.945 496.019 202.377C496.019 202.899 495.452 203.292 494.597 203.292C493.772 203.292 493.235 202.934 493.081 202.248L491.326 202.417C491.55 203.819 492.728 204.649 494.602 204.649C496.511 204.649 497.859 203.66 497.864 202.213C497.859 201.124 497.158 200.458 495.716 200.145L494.413 199.866C493.638 199.692 493.329 199.424 493.334 198.982C493.329 198.464 493.901 198.107 494.652 198.107C495.482 198.107 495.92 198.559 496.059 199.061L497.699 198.882ZM499.348 204.5H501.147V196.864H499.348V204.5ZM500.252 195.78C500.824 195.78 501.291 195.342 501.291 194.805C501.291 194.263 500.824 193.826 500.252 193.826C499.676 193.826 499.208 194.263 499.208 194.805C499.208 195.342 499.676 195.78 500.252 195.78ZM503.078 204.5H504.847V203.297H504.952C505.235 203.854 505.827 204.634 507.139 204.634C508.939 204.634 510.286 203.207 510.286 200.692C510.286 198.146 508.899 196.764 507.134 196.764C505.787 196.764 505.225 197.575 504.952 198.126H504.877V194.318H503.078V204.5ZM504.842 200.682C504.842 199.2 505.479 198.241 506.637 198.241C507.835 198.241 508.452 199.26 508.452 200.682C508.452 202.114 507.825 203.158 506.637 203.158C505.489 203.158 504.842 202.163 504.842 200.682ZM513.616 194.318H511.816V204.5H513.616V194.318ZM518.847 204.649C520.627 204.649 521.85 203.779 522.168 202.452L520.488 202.263C520.244 202.909 519.648 203.247 518.872 203.247C517.709 203.247 516.938 202.482 516.923 201.174H522.243V200.622C522.243 197.942 520.632 196.764 518.753 196.764C516.565 196.764 515.139 198.37 515.139 200.727C515.139 203.123 516.546 204.649 518.847 204.649ZM516.928 199.961C516.983 198.987 517.704 198.166 518.778 198.166C519.812 198.166 520.508 198.922 520.518 199.961H516.928ZM526.87 195.864H530.017V204.5H531.847V195.864H534.994V194.318H526.87V195.864ZM538.754 204.649C540.533 204.649 541.756 203.779 542.075 202.452L540.394 202.263C540.151 202.909 539.554 203.247 538.778 203.247C537.615 203.247 536.845 202.482 536.83 201.174H542.149V200.622C542.149 197.942 540.538 196.764 538.659 196.764C536.472 196.764 535.045 198.37 535.045 200.727C535.045 203.123 536.452 204.649 538.754 204.649ZM536.835 199.961C536.889 198.987 537.61 198.166 538.684 198.166C539.718 198.166 540.414 198.922 540.424 199.961H536.835ZM545.869 204.654C547.067 204.654 547.783 204.092 548.111 203.451H548.171V204.5H549.901V199.389C549.901 197.371 548.256 196.764 546.799 196.764C545.193 196.764 543.96 197.48 543.562 198.872L545.243 199.111C545.422 198.589 545.929 198.141 546.809 198.141C547.644 198.141 548.101 198.569 548.101 199.32V199.349C548.101 199.866 547.56 199.891 546.212 200.036C544.731 200.195 543.314 200.637 543.314 202.357C543.314 203.859 544.413 204.654 545.869 204.654ZM546.337 203.332C545.586 203.332 545.049 202.989 545.049 202.327C545.049 201.636 545.65 201.348 546.456 201.234C546.928 201.169 547.873 201.05 548.106 200.861V201.761C548.106 202.611 547.42 203.332 546.337 203.332ZM555.042 204.649C556.961 204.649 558.184 203.511 558.313 201.89H556.593C556.439 202.71 555.847 203.183 555.057 203.183C553.933 203.183 553.207 202.243 553.207 200.682C553.207 199.141 553.948 198.216 555.057 198.216C555.922 198.216 556.454 198.773 556.593 199.509H558.313C558.189 197.853 556.896 196.764 555.032 196.764C552.795 196.764 551.383 198.38 551.383 200.712C551.383 203.023 552.76 204.649 555.042 204.649ZM561.591 200.026C561.591 198.922 562.277 198.286 563.241 198.286C564.186 198.286 564.743 198.887 564.743 199.916V204.5H566.542V199.638C566.542 197.793 565.498 196.764 563.912 196.764C562.739 196.764 561.993 197.296 561.64 198.161H561.551V194.318H559.791V204.5H561.591V200.026ZM571.758 204.649C573.537 204.649 574.76 203.779 575.079 202.452L573.398 202.263C573.155 202.909 572.558 203.247 571.782 203.247C570.619 203.247 569.848 202.482 569.834 201.174H575.153V200.622C575.153 197.942 573.542 196.764 571.663 196.764C569.476 196.764 568.049 198.37 568.049 200.727C568.049 203.123 569.456 204.649 571.758 204.649ZM569.839 199.961C569.893 198.987 570.614 198.166 571.688 198.166C572.722 198.166 573.418 198.922 573.428 199.961H569.839ZM576.676 204.5H578.475V200.011C578.475 199.041 579.206 198.355 580.196 198.355C580.499 198.355 580.877 198.41 581.031 198.46V196.804C580.867 196.774 580.583 196.754 580.384 196.754C579.509 196.754 578.779 197.251 578.5 198.136H578.421V196.864H576.676V204.5Z" fill="#1D7DEF"/>
<path d="M131.264 82H134.339V77.2841H136.925C140.27 77.2841 142.216 75.2884 142.216 72.3835C142.216 69.4929 140.305 67.4545 137.003 67.4545H131.264V82ZM134.339 74.8196V69.9688H136.413C138.189 69.9688 139.048 70.9347 139.048 72.3835C139.048 73.8253 138.189 74.8196 136.428 74.8196H134.339ZM144.157 82H147.182V75.8281C147.182 74.4858 148.162 73.5625 149.498 73.5625C149.917 73.5625 150.492 73.6335 150.776 73.7259V71.0412C150.506 70.9773 150.13 70.9347 149.824 70.9347C148.603 70.9347 147.601 71.6449 147.203 72.9943H147.09V71.0909H144.157V82ZM155.138 82.206C156.751 82.206 157.795 81.5028 158.327 80.4872H158.413V82H161.282V74.642C161.282 72.0426 159.08 70.9489 156.651 70.9489C154.038 70.9489 152.319 72.1989 151.9 74.1875L154.698 74.4148C154.904 73.6903 155.55 73.1577 156.637 73.1577C157.667 73.1577 158.256 73.6761 158.256 74.571V74.6136C158.256 75.3168 157.511 75.4091 155.614 75.5938C153.455 75.7926 151.516 76.517 151.516 78.9531C151.516 81.1122 153.058 82.206 155.138 82.206ZM156.005 80.1179C155.075 80.1179 154.407 79.6847 154.407 78.8537C154.407 78.0014 155.11 77.5824 156.175 77.4332C156.836 77.3409 157.915 77.1847 158.278 76.9432V78.1009C158.278 79.2443 157.333 80.1179 156.005 80.1179ZM166.655 75.6932C166.662 74.2869 167.5 73.4631 168.722 73.4631C169.936 73.4631 170.668 74.2585 170.661 75.5938V82H173.686V75.054C173.686 72.5114 172.195 70.9489 169.922 70.9489C168.303 70.9489 167.131 71.7443 166.641 73.0156H166.513V71.0909H163.629V82H166.655V75.6932ZM181.042 82.2131C183.741 82.2131 185.559 80.8991 185.985 78.875L183.187 78.6903C182.882 79.5213 182.1 79.9545 181.092 79.9545C179.579 79.9545 178.62 78.9531 178.62 77.3267V77.3196H186.049V76.4886C186.049 72.7812 183.805 70.9489 180.922 70.9489C177.711 70.9489 175.63 73.2287 175.63 76.5952C175.63 80.054 177.683 82.2131 181.042 82.2131ZM178.62 75.4446C178.684 74.2017 179.629 73.2074 180.971 73.2074C182.285 73.2074 183.194 74.1449 183.201 75.4446H178.62ZM192.995 82.2131C195.694 82.2131 197.512 80.8991 197.939 78.875L195.14 78.6903C194.835 79.5213 194.054 79.9545 193.045 79.9545C191.532 79.9545 190.574 78.9531 190.574 77.3267V77.3196H198.002V76.4886C198.002 72.7812 195.758 70.9489 192.875 70.9489C189.664 70.9489 187.583 73.2287 187.583 76.5952C187.583 80.054 189.636 82.2131 192.995 82.2131ZM190.574 75.4446C190.637 74.2017 191.582 73.2074 192.924 73.2074C194.238 73.2074 195.147 74.1449 195.154 75.4446H190.574ZM205.779 71.0909H203.727V68.4773H200.701V71.0909H199.21V73.3636H200.701V79.0455C200.687 81.1832 202.143 82.2415 204.338 82.1491C205.119 82.1207 205.673 81.9645 205.978 81.8651L205.502 79.6136C205.353 79.642 205.034 79.7131 204.75 79.7131C204.146 79.7131 203.727 79.4858 203.727 78.6477V73.3636H205.779V71.0909ZM211.01 75.6932C211.017 74.2869 211.877 73.4631 213.113 73.4631C214.341 73.4631 215.066 74.2514 215.059 75.5938V82H218.084V75.054C218.091 72.4972 216.586 70.9489 214.313 70.9489C212.658 70.9489 211.55 71.7301 211.053 73.0156H210.925V67.4545H207.985V82H211.01V75.6932ZM234.796 72.1562H237.921C237.523 69.2798 234.988 67.2557 231.699 67.2557C227.857 67.2557 224.895 70.0256 224.895 74.7415C224.895 79.3438 227.665 82.1989 231.763 82.1989C235.435 82.1989 238.056 79.8764 238.056 76.0483V74.2159H231.969V76.5312H235.094C235.051 78.3352 233.823 79.4787 231.777 79.4787C229.469 79.4787 228.013 77.7528 228.013 74.7131C228.013 71.6875 229.526 69.9759 231.749 69.9759C233.333 69.9759 234.405 70.7926 234.796 72.1562ZM247.305 77.3551C247.312 78.8182 246.31 79.5852 245.224 79.5852C244.08 79.5852 243.342 78.7827 243.335 77.4972V71.0909H240.309V78.0369C240.316 80.5866 241.808 82.142 244.002 82.142C245.643 82.142 246.822 81.2969 247.312 80.0185H247.425V82H250.33V71.0909H247.305V77.3551ZM256.77 82.1776C258.532 82.1776 259.448 81.1619 259.867 80.2528H259.995V82H262.978V67.4545H259.959V72.9233H259.867C259.462 72.0355 258.588 70.9489 256.763 70.9489C254.37 70.9489 252.346 72.8097 252.346 76.5597C252.346 80.2102 254.284 82.1776 256.77 82.1776ZM257.729 79.7699C256.245 79.7699 255.435 78.4489 255.435 76.5455C255.435 74.6562 256.23 73.3565 257.729 73.3565C259.199 73.3565 260.023 74.5994 260.023 76.5455C260.023 78.4915 259.185 79.7699 257.729 79.7699ZM272.461 77.3551C272.468 78.8182 271.467 79.5852 270.38 79.5852C269.237 79.5852 268.498 78.7827 268.491 77.4972V71.0909H265.465V78.0369C265.472 80.5866 266.964 82.142 269.158 82.142C270.799 82.142 271.978 81.2969 272.468 80.0185H272.582V82H275.487V71.0909H272.461V77.3551ZM282.821 86.3182C285.939 86.3182 288.155 84.8977 288.155 82.1065V71.0909H285.151V72.9233H285.037C284.632 72.0355 283.745 70.9489 281.919 70.9489C279.526 70.9489 277.502 72.8097 277.502 76.5241C277.502 80.1534 279.469 81.8438 281.926 81.8438C283.667 81.8438 284.64 80.9702 285.037 80.0682H285.165V82.0639C285.165 83.5625 284.206 84.1449 282.892 84.1449C281.557 84.1449 280.882 83.5625 280.634 82.902L277.836 83.2784C278.198 84.9972 279.881 86.3182 282.821 86.3182ZM282.885 79.571C281.401 79.571 280.591 78.392 280.591 76.5099C280.591 74.6562 281.387 73.3565 282.885 73.3565C284.355 73.3565 285.179 74.5994 285.179 76.5099C285.179 78.4347 284.341 79.571 282.885 79.571ZM297.559 77.3551C297.566 78.8182 296.564 79.5852 295.478 79.5852C294.334 79.5852 293.596 78.7827 293.588 77.4972V71.0909H290.563V78.0369C290.57 80.5866 292.061 82.142 294.256 82.142C295.897 82.142 297.076 81.2969 297.566 80.0185H297.679V82H300.584V71.0909H297.559V77.3551ZM306.03 75.6932C306.037 74.2869 306.875 73.4631 308.097 73.4631C309.311 73.4631 310.043 74.2585 310.036 75.5938V82H313.061V75.054C313.061 72.5114 311.57 70.9489 309.297 70.9489C307.678 70.9489 306.506 71.7443 306.016 73.0156H305.888V71.0909H303.004V82H306.03V75.6932ZM321.248 71.0909H319.196V68.4773H316.17V71.0909H314.679V73.3636H316.17V79.0455C316.156 81.1832 317.612 82.2415 319.806 82.1491C320.588 82.1207 321.142 81.9645 321.447 81.8651L320.971 79.6136C320.822 79.642 320.502 79.7131 320.218 79.7131C319.615 79.7131 319.196 79.4858 319.196 78.6477V73.3636H321.248V71.0909ZM326.479 67.4545H323.453V82H326.479V67.4545ZM332.013 82.206C333.626 82.206 334.67 81.5028 335.202 80.4872H335.288V82H338.157V74.642C338.157 72.0426 335.955 70.9489 333.526 70.9489C330.913 70.9489 329.194 72.1989 328.775 74.1875L331.573 74.4148C331.779 73.6903 332.425 73.1577 333.512 73.1577C334.542 73.1577 335.131 73.6761 335.131 74.571V74.6136C335.131 75.3168 334.386 75.4091 332.489 75.5938C330.33 75.7926 328.391 76.517 328.391 78.9531C328.391 81.1122 329.933 82.206 332.013 82.206ZM332.88 80.1179C331.95 80.1179 331.282 79.6847 331.282 78.8537C331.282 78.0014 331.985 77.5824 333.05 77.4332C333.711 77.3409 334.79 77.1847 335.153 76.9432V78.1009C335.153 79.2443 334.208 80.1179 332.88 80.1179Z" fill="black"/>
<path d="M346.017 82H348.141V75.3381C348.141 73.9105 349.242 72.8807 350.748 72.8807C351.188 72.8807 351.685 72.9588 351.855 73.0085V70.9773C351.642 70.9489 351.223 70.9276 350.953 70.9276C349.675 70.9276 348.581 71.652 348.184 72.8239H348.07V71.0909H346.017V82ZM358.004 82.2202C360.384 82.2202 362.067 81.0483 362.55 79.2727L360.54 78.9105C360.156 79.9403 359.233 80.4659 358.026 80.4659C356.207 80.4659 354.986 79.2869 354.929 77.1847H362.685V76.4318C362.685 72.4901 360.327 70.9489 357.855 70.9489C354.815 70.9489 352.812 73.2642 352.812 76.6165C352.812 80.0043 354.787 82.2202 358.004 82.2202ZM354.936 75.5938C355.021 74.0455 356.143 72.7031 357.869 72.7031C359.517 72.7031 360.597 73.9247 360.604 75.5938H354.936ZM369.636 82.2202C372.214 82.2202 373.883 80.6719 374.118 78.5483H372.051C371.781 79.7273 370.865 80.4233 369.65 80.4233C367.853 80.4233 366.696 78.9247 366.696 76.5455C366.696 74.2088 367.875 72.7386 369.65 72.7386C371 72.7386 371.824 73.5909 372.051 74.6136H374.118C373.89 72.4119 372.093 70.9489 369.615 70.9489C366.539 70.9489 364.551 73.2642 364.551 76.5952C364.551 79.8835 366.468 82.2202 369.636 82.2202ZM380.984 82.2202C383.562 82.2202 385.231 80.6719 385.465 78.5483H383.398C383.129 79.7273 382.212 80.4233 380.998 80.4233C379.201 80.4233 378.043 78.9247 378.043 76.5455C378.043 74.2088 379.222 72.7386 380.998 72.7386C382.347 72.7386 383.171 73.5909 383.398 74.6136H385.465C385.238 72.4119 383.441 70.9489 380.962 70.9489C377.887 70.9489 375.898 73.2642 375.898 76.5952C375.898 79.8835 377.816 82.2202 380.984 82.2202ZM392.331 82.2202C395.407 82.2202 397.417 79.9688 397.417 76.5952C397.417 73.2003 395.407 70.9489 392.331 70.9489C389.256 70.9489 387.246 73.2003 387.246 76.5952C387.246 79.9688 389.256 82.2202 392.331 82.2202ZM392.338 80.4375C390.328 80.4375 389.391 78.6832 389.391 76.5881C389.391 74.5 390.328 72.7244 392.338 72.7244C394.334 72.7244 395.272 74.5 395.272 76.5881C395.272 78.6832 394.334 80.4375 392.338 80.4375ZM399.787 82H401.911V75.2741C401.911 73.804 402.94 72.7812 404.148 72.7812C405.327 72.7812 406.143 73.5625 406.143 74.7486V82H408.26V75.0469C408.26 73.733 409.062 72.7812 410.447 72.7812C411.57 72.7812 412.493 73.4062 412.493 74.8835V82H414.616V74.6847C414.616 72.1918 413.224 70.9489 411.25 70.9489C409.68 70.9489 408.501 71.7017 407.976 72.8665H407.862C407.386 71.6733 406.385 70.9489 404.929 70.9489C403.487 70.9489 402.415 71.6662 401.96 72.8665H401.825V71.0909H399.787V82ZM422.164 82.2202C424.544 82.2202 426.227 81.0483 426.71 79.2727L424.7 78.9105C424.316 79.9403 423.393 80.4659 422.186 80.4659C420.368 80.4659 419.146 79.2869 419.089 77.1847H426.845V76.4318C426.845 72.4901 424.487 70.9489 422.015 70.9489C418.975 70.9489 416.973 73.2642 416.973 76.6165C416.973 80.0043 418.947 82.2202 422.164 82.2202ZM419.096 75.5938C419.181 74.0455 420.304 72.7031 422.029 72.7031C423.677 72.7031 424.757 73.9247 424.764 75.5938H419.096ZM431.325 75.5227C431.325 73.7827 432.39 72.7884 433.867 72.7884C435.309 72.7884 436.183 73.733 436.183 75.3168V82H438.306V75.0611C438.306 72.3622 436.822 70.9489 434.592 70.9489C432.951 70.9489 431.879 71.7088 431.374 72.8665H431.239V71.0909H429.201V82H431.325V75.5227ZM445.238 82.2131C447.227 82.2131 448.008 80.9986 448.391 80.3026H448.569V82H450.643V67.4545H448.519V72.8594H448.391C448.008 72.1847 447.283 70.9489 445.252 70.9489C442.617 70.9489 440.678 73.0298 440.678 76.5668C440.678 80.0966 442.589 82.2131 445.238 82.2131ZM445.707 80.402C443.81 80.402 442.823 78.733 442.823 76.5455C442.823 74.3793 443.789 72.7528 445.707 72.7528C447.56 72.7528 448.555 74.2656 448.555 76.5455C448.555 78.8395 447.539 80.402 445.707 80.402ZM461.848 73.7543C461.408 72.0568 460.08 70.9489 457.722 70.9489C455.257 70.9489 453.51 72.2486 453.51 74.1804C453.51 75.7287 454.448 76.7585 456.493 77.2131L458.34 77.6179C459.391 77.8523 459.881 78.321 459.881 79.0028C459.881 79.848 458.979 80.5085 457.587 80.5085C456.316 80.5085 455.499 79.9616 455.243 78.8892L453.191 79.2017C453.546 81.1335 455.151 82.2202 457.601 82.2202C460.236 82.2202 462.061 80.821 462.061 78.8466C462.061 77.3054 461.081 76.3537 459.078 75.892L457.346 75.4943C456.145 75.2102 455.627 74.8054 455.634 74.0668C455.627 73.2287 456.536 72.6321 457.743 72.6321C459.064 72.6321 459.675 73.3636 459.924 74.0952L461.848 73.7543ZM474.782 71.0909H472.544V68.4773H470.421V71.0909H468.823V72.7955H470.421V79.2372C470.414 81.2188 471.926 82.1776 473.603 82.142C474.277 82.1349 474.732 82.0071 474.98 81.9148L474.597 80.1605C474.455 80.1889 474.192 80.2528 473.851 80.2528C473.162 80.2528 472.544 80.0256 472.544 78.7969V72.7955H474.782V71.0909ZM479.489 75.5227C479.489 73.7827 480.589 72.7884 482.102 72.7884C483.565 72.7884 484.439 73.7188 484.439 75.3168V82H486.562V75.0611C486.562 72.3409 485.071 70.9489 482.827 70.9489C481.129 70.9489 480.107 71.6875 479.595 72.8665H479.46V67.4545H477.365V82H479.489V75.5227ZM489.396 82H491.52V71.0909H489.396V82ZM490.469 69.4077C491.2 69.4077 491.811 68.8395 491.811 68.1435C491.811 67.4474 491.2 66.8722 490.469 66.8722C489.73 66.8722 489.126 67.4474 489.126 68.1435C489.126 68.8395 489.73 69.4077 490.469 69.4077ZM502.551 73.7543C502.111 72.0568 500.783 70.9489 498.425 70.9489C495.961 70.9489 494.213 72.2486 494.213 74.1804C494.213 75.7287 495.151 76.7585 497.196 77.2131L499.043 77.6179C500.094 77.8523 500.584 78.321 500.584 79.0028C500.584 79.848 499.682 80.5085 498.29 80.5085C497.019 80.5085 496.202 79.9616 495.946 78.8892L493.894 79.2017C494.249 81.1335 495.854 82.2202 498.304 82.2202C500.939 82.2202 502.765 80.821 502.765 78.8466C502.765 77.3054 501.784 76.3537 499.782 75.892L498.049 75.4943C496.848 75.2102 496.33 74.8054 496.337 74.0668C496.33 73.2287 497.239 72.6321 498.446 72.6321C499.767 72.6321 500.378 73.3636 500.627 74.0952L502.551 73.7543ZM514.988 82.2202C517.566 82.2202 519.235 80.6719 519.469 78.5483H517.402C517.132 79.7273 516.216 80.4233 515.002 80.4233C513.205 80.4233 512.047 78.9247 512.047 76.5455C512.047 74.2088 513.226 72.7386 515.002 72.7386C516.351 72.7386 517.175 73.5909 517.402 74.6136H519.469C519.242 72.4119 517.445 70.9489 514.966 70.9489C511.891 70.9489 509.902 73.2642 509.902 76.5952C509.902 79.8835 511.82 82.2202 514.988 82.2202ZM523.864 67.4545H521.74V82H523.864V67.4545ZM529.895 82.2415C531.699 82.2415 532.715 81.3253 533.12 80.5085H533.205V82H535.279V74.7557C535.279 71.581 532.779 70.9489 531.046 70.9489C529.071 70.9489 527.253 71.7443 526.543 73.733L528.539 74.1875C528.851 73.4134 529.647 72.6676 531.074 72.6676C532.445 72.6676 533.148 73.3849 533.148 74.6207V74.6705C533.148 75.4446 532.353 75.4304 530.392 75.6577C528.326 75.8991 526.209 76.4389 526.209 78.9176C526.209 81.0625 527.821 82.2415 529.895 82.2415ZM530.357 80.5369C529.157 80.5369 528.29 79.9972 528.29 78.946C528.29 77.8097 529.299 77.4048 530.527 77.2415C531.216 77.1491 532.85 76.9645 533.155 76.6591V78.0653C533.155 79.358 532.125 80.5369 530.357 80.5369ZM546.282 73.7543C545.842 72.0568 544.513 70.9489 542.156 70.9489C539.691 70.9489 537.944 72.2486 537.944 74.1804C537.944 75.7287 538.881 76.7585 540.927 77.2131L542.773 77.6179C543.825 77.8523 544.315 78.321 544.315 79.0028C544.315 79.848 543.413 80.5085 542.021 80.5085C540.749 80.5085 539.933 79.9616 539.677 78.8892L537.624 79.2017C537.979 81.1335 539.585 82.2202 542.035 82.2202C544.67 82.2202 546.495 80.821 546.495 78.8466C546.495 77.3054 545.515 76.3537 543.512 75.892L541.779 75.4943C540.579 75.2102 540.06 74.8054 540.067 74.0668C540.06 73.2287 540.969 72.6321 542.177 72.6321C543.498 72.6321 544.109 73.3636 544.357 74.0952L546.282 73.7543ZM557.005 73.7543C556.564 72.0568 555.236 70.9489 552.878 70.9489C550.414 70.9489 548.667 72.2486 548.667 74.1804C548.667 75.7287 549.604 76.7585 551.65 77.2131L553.496 77.6179C554.547 77.8523 555.037 78.321 555.037 79.0028C555.037 79.848 554.135 80.5085 552.743 80.5085C551.472 80.5085 550.655 79.9616 550.4 78.8892L548.347 79.2017C548.702 81.1335 550.307 82.2202 552.757 82.2202C555.392 82.2202 557.218 80.821 557.218 78.8466C557.218 77.3054 556.238 76.3537 554.235 75.892L552.502 75.4943C551.301 75.2102 550.783 74.8054 550.79 74.0668C550.783 73.2287 551.692 72.6321 552.9 72.6321C554.221 72.6321 554.831 73.3636 555.08 74.0952L557.005 73.7543Z" fill="#5E5E5E"/>
<path d="M135.534 93.3636H133.824L130.92 95.2614V96.9432L133.705 95.125H133.773V105H135.534V93.3636ZM142.744 105.159C145.176 105.182 146.79 103.432 146.784 101.199C146.79 98.9716 145.17 97.375 143.153 97.375C141.926 97.375 140.864 97.9659 140.267 98.9489H140.182C140.188 96.3068 141.188 94.7386 142.892 94.7386C144.011 94.7386 144.716 95.4205 144.955 96.3864H146.688C146.42 94.5455 144.972 93.2045 142.892 93.2045C140.188 93.2045 138.5 95.5284 138.5 99.5739C138.494 103.858 140.676 105.142 142.744 105.159ZM142.739 103.682C141.386 103.682 140.398 102.545 140.398 101.239C140.403 99.9375 141.438 98.8011 142.778 98.8011C144.108 98.8011 145.085 99.875 145.08 101.222C145.085 102.597 144.068 103.682 142.739 103.682ZM162.639 93.3636H160.901V101.909H160.793L154.872 93.3636H153.247V105H155.003V96.4659H155.111L161.026 105H162.639V93.3636ZM168.74 105.176C171.2 105.176 172.808 103.375 172.808 100.676C172.808 97.9602 171.2 96.1591 168.74 96.1591C166.28 96.1591 164.672 97.9602 164.672 100.676C164.672 103.375 166.28 105.176 168.74 105.176ZM168.746 103.75C167.138 103.75 166.388 102.347 166.388 100.67C166.388 99 167.138 97.5795 168.746 97.5795C170.342 97.5795 171.092 99 171.092 100.67C171.092 102.347 170.342 103.75 168.746 103.75ZM181.858 96.2727H180.034L177.83 102.989H177.739L175.528 96.2727H173.705L176.875 105H178.693L181.858 96.2727ZM187.666 105H195.325V103.494H190.087V103.409L192.399 100.989C194.53 98.8352 195.138 97.8068 195.138 96.5057C195.138 94.6364 193.615 93.2045 191.422 93.2045C189.246 93.2045 187.655 94.6136 187.655 96.7386H189.331C189.325 95.4886 190.132 94.6705 191.388 94.6705C192.57 94.6705 193.467 95.3977 193.467 96.5568C193.467 97.5852 192.854 98.3239 191.604 99.6477L187.666 103.727V105ZM201.53 105.193C204.217 105.193 205.791 103 205.791 99.1875C205.791 95.4034 204.195 93.2045 201.53 93.2045C198.859 93.2045 197.268 95.3977 197.263 99.1875C197.263 102.994 198.837 105.188 201.53 105.193ZM201.53 103.676C199.956 103.676 199.007 102.097 199.007 99.1875C199.013 96.2898 199.962 94.6932 201.53 94.6932C203.092 94.6932 204.047 96.2898 204.047 99.1875C204.047 102.097 203.098 103.676 201.53 103.676ZM212.222 93.3636H210.511L207.608 95.2614V96.9432L210.392 95.125H210.46V105H212.222V93.3636ZM219.239 93.2045C216.795 93.1818 215.199 94.9375 215.199 97.142C215.205 99.3636 216.812 100.966 218.83 100.966C220.062 100.966 221.119 100.364 221.716 99.3864H221.807C221.801 102.062 220.795 103.625 219.091 103.625C217.977 103.625 217.261 102.943 217.034 101.949H215.301C215.557 103.83 217.011 105.159 219.091 105.159C221.795 105.159 223.489 102.835 223.489 98.7614C223.483 94.5114 221.312 93.2216 219.239 93.2045ZM219.244 94.6818C220.591 94.6818 221.585 95.8239 221.585 97.1023C221.591 98.3977 220.54 99.5341 219.21 99.5341C217.875 99.5341 216.909 98.4659 216.903 97.1193C216.903 95.767 217.909 94.6818 219.244 94.6818ZM230.918 101.04C231.537 101.04 232.054 100.534 232.054 99.9034C232.054 99.2841 231.537 98.7727 230.918 98.7727C230.293 98.7727 229.781 99.2841 229.781 99.9034C229.781 100.534 230.293 101.04 230.918 101.04ZM238.7 105H245.729V103.489H240.456V93.3636H238.7V105ZM250.135 105.193C251.578 105.193 252.391 104.46 252.714 103.807H252.783V105H254.442V99.2045C254.442 96.6648 252.442 96.1591 251.055 96.1591C249.476 96.1591 248.021 96.7955 247.453 98.3864L249.05 98.75C249.3 98.1307 249.936 97.5341 251.078 97.5341C252.175 97.5341 252.737 98.108 252.737 99.0966V99.1364C252.737 99.7557 252.101 99.7443 250.533 99.9261C248.879 100.119 247.186 100.551 247.186 102.534C247.186 104.25 248.476 105.193 250.135 105.193ZM250.504 103.83C249.544 103.83 248.851 103.398 248.851 102.557C248.851 101.648 249.658 101.324 250.641 101.193C251.192 101.119 252.499 100.972 252.743 100.727V101.852C252.743 102.886 251.919 103.83 250.504 103.83ZM263.244 98.4034C262.892 97.0455 261.83 96.1591 259.943 96.1591C257.972 96.1591 256.574 97.1989 256.574 98.7443C256.574 99.983 257.324 100.807 258.96 101.17L260.438 101.494C261.278 101.682 261.67 102.057 261.67 102.602C261.67 103.278 260.949 103.807 259.835 103.807C258.818 103.807 258.165 103.369 257.96 102.511L256.318 102.761C256.602 104.307 257.886 105.176 259.847 105.176C261.955 105.176 263.415 104.057 263.415 102.477C263.415 101.244 262.631 100.483 261.028 100.114L259.642 99.7955C258.682 99.5682 258.267 99.2443 258.273 98.6534C258.267 97.983 258.994 97.5057 259.96 97.5057C261.017 97.5057 261.506 98.0909 261.705 98.6761L263.244 98.4034ZM269.357 96.2727H267.567V94.1818H265.868V96.2727H264.589V97.6364H265.868V102.79C265.862 104.375 267.072 105.142 268.413 105.114C268.953 105.108 269.317 105.006 269.516 104.932L269.209 103.528C269.095 103.551 268.885 103.602 268.612 103.602C268.061 103.602 267.567 103.42 267.567 102.438V97.6364H269.357V96.2727ZM279.544 96.2727H277.754V94.1818H276.055V96.2727H274.777V97.6364H276.055V102.79C276.05 104.375 277.26 105.142 278.601 105.114C279.141 105.108 279.504 105.006 279.703 104.932L279.396 103.528C279.283 103.551 279.072 103.602 278.8 103.602C278.249 103.602 277.754 103.42 277.754 102.438V97.6364H279.544V96.2727ZM283.963 105.193C285.406 105.193 286.219 104.46 286.543 103.807H286.611V105H288.27V99.2045C288.27 96.6648 286.27 96.1591 284.884 96.1591C283.304 96.1591 281.849 96.7955 281.281 98.3864L282.878 98.75C283.128 98.1307 283.764 97.5341 284.906 97.5341C286.003 97.5341 286.565 98.108 286.565 99.0966V99.1364C286.565 99.7557 285.929 99.7443 284.361 99.9261C282.707 100.119 281.014 100.551 281.014 102.534C281.014 104.25 282.304 105.193 283.963 105.193ZM284.332 103.83C283.372 103.83 282.679 103.398 282.679 102.557C282.679 101.648 283.486 101.324 284.469 101.193C285.02 101.119 286.327 100.972 286.571 100.727V101.852C286.571 102.886 285.747 103.83 284.332 103.83ZM290.533 105H292.232V101.903L293.078 101.057L296.044 105H298.129L294.357 100.017L297.891 96.2727H295.857L292.379 99.9659H292.232V93.3636H290.533V105ZM302.841 105.176C304.744 105.176 306.091 104.239 306.477 102.818L304.869 102.528C304.562 103.352 303.824 103.773 302.858 103.773C301.403 103.773 300.426 102.83 300.381 101.148H306.585V100.545C306.585 97.392 304.699 96.1591 302.722 96.1591C300.29 96.1591 298.688 98.0114 298.688 100.693C298.688 103.403 300.267 105.176 302.841 105.176ZM300.386 99.875C300.455 98.6364 301.352 97.5625 302.733 97.5625C304.051 97.5625 304.915 98.5398 304.92 99.875H300.386ZM310.169 99.8182C310.169 98.4261 311.021 97.6307 312.203 97.6307C313.357 97.6307 314.055 98.3864 314.055 99.6534V105H315.754V99.4489C315.754 97.2898 314.567 96.1591 312.783 96.1591C311.47 96.1591 310.612 96.767 310.209 97.6932H310.101V96.2727H308.47V105H310.169V99.8182ZM322.267 105H323.966V96.2727H322.267V105ZM323.125 94.9261C323.71 94.9261 324.199 94.4716 324.199 93.9148C324.199 93.358 323.71 92.8977 323.125 92.8977C322.534 92.8977 322.051 93.358 322.051 93.9148C322.051 94.4716 322.534 94.9261 323.125 94.9261ZM327.95 99.8182C327.95 98.4261 328.803 97.6307 329.984 97.6307C331.138 97.6307 331.837 98.3864 331.837 99.6534V105H333.536V99.4489C333.536 97.2898 332.348 96.1591 330.564 96.1591C329.251 96.1591 328.393 96.767 327.99 97.6932H327.882V96.2727H326.251V105H327.95V99.8182ZM346.531 96.4205H348.224C348.173 94.5568 346.526 93.2045 344.162 93.2045C341.827 93.2045 340.037 94.5398 340.037 96.5455C340.037 98.1648 341.196 99.1136 343.065 99.6193L344.44 99.9943C345.685 100.324 346.645 100.733 346.645 101.767C346.645 102.903 345.56 103.653 344.065 103.653C342.713 103.653 341.588 103.051 341.486 101.784H339.724C339.838 103.892 341.469 105.193 344.077 105.193C346.81 105.193 348.384 103.756 348.384 101.784C348.384 99.6875 346.514 98.875 345.037 98.5114L343.901 98.2159C342.991 97.983 341.781 97.5568 341.787 96.4432C341.787 95.4545 342.69 94.7216 344.122 94.7216C345.457 94.7216 346.406 95.3466 346.531 96.4205ZM350.345 108.273H352.044V103.642H352.146C352.453 104.199 353.078 105.17 354.669 105.17C356.783 105.17 358.317 103.477 358.317 100.653C358.317 97.8239 356.76 96.1591 354.652 96.1591C353.033 96.1591 352.447 97.1477 352.146 97.6875H352.004V96.2727H350.345V108.273ZM352.01 100.636C352.01 98.8125 352.805 97.6023 354.288 97.6023C355.828 97.6023 356.601 98.9034 356.601 100.636C356.601 102.386 355.805 103.722 354.288 103.722C352.828 103.722 352.01 102.472 352.01 100.636ZM360.22 105H361.919V99.6705C361.919 98.5284 362.8 97.7045 364.004 97.7045C364.357 97.7045 364.754 97.767 364.891 97.8068V96.1818C364.72 96.1591 364.385 96.142 364.169 96.142C363.146 96.142 362.271 96.7216 361.953 97.6591H361.862V96.2727H360.22V105ZM366.361 105H368.06V96.2727H366.361V105ZM367.219 94.9261C367.804 94.9261 368.293 94.4716 368.293 93.9148C368.293 93.358 367.804 92.8977 367.219 92.8977C366.628 92.8977 366.145 93.358 366.145 93.9148C366.145 94.4716 366.628 94.9261 367.219 94.9261ZM372.044 99.8182C372.044 98.4261 372.896 97.6307 374.078 97.6307C375.232 97.6307 375.93 98.3864 375.93 99.6534V105H377.629V99.4489C377.629 97.2898 376.442 96.1591 374.658 96.1591C373.345 96.1591 372.487 96.767 372.084 97.6932H371.976V96.2727H370.345V105H372.044V99.8182ZM383.567 108.455C385.788 108.455 387.504 107.438 387.504 105.193V96.2727H385.839V97.6875H385.714C385.413 97.1477 384.811 96.1591 383.186 96.1591C381.078 96.1591 379.527 97.8239 379.527 100.602C379.527 103.386 381.112 104.869 383.175 104.869C384.777 104.869 385.396 103.966 385.703 103.409H385.811V105.125C385.811 106.494 384.874 107.085 383.584 107.085C382.169 107.085 381.618 106.375 381.317 105.875L379.857 106.477C380.317 107.545 381.482 108.455 383.567 108.455ZM383.55 103.46C382.033 103.46 381.243 102.295 381.243 100.58C381.243 98.9034 382.016 97.6023 383.55 97.6023C385.033 97.6023 385.828 98.8125 385.828 100.58C385.828 102.381 385.016 103.46 383.55 103.46ZM393.994 105H401.653V103.494H396.415V103.409L398.727 100.989C400.858 98.8352 401.466 97.8068 401.466 96.5057C401.466 94.6364 399.943 93.2045 397.75 93.2045C395.574 93.2045 393.983 94.6136 393.983 96.7386H395.659C395.653 95.4886 396.46 94.6705 397.716 94.6705C398.898 94.6705 399.795 95.3977 399.795 96.5568C399.795 97.5852 399.182 98.3239 397.932 99.6477L393.994 103.727V105ZM407.858 105.193C410.545 105.193 412.119 103 412.119 99.1875C412.119 95.4034 410.523 93.2045 407.858 93.2045C405.188 93.2045 403.597 95.3977 403.591 99.1875C403.591 102.994 405.165 105.188 407.858 105.193ZM407.858 103.676C406.284 103.676 405.335 102.097 405.335 99.1875C405.341 96.2898 406.29 94.6932 407.858 94.6932C409.42 94.6932 410.375 96.2898 410.375 99.1875C410.375 102.097 409.426 103.676 407.858 103.676ZM418.55 93.3636H416.839L413.936 95.2614V96.9432L416.72 95.125H416.788V105H418.55V93.3636ZM425.567 93.2045C423.124 93.1818 421.527 94.9375 421.527 97.142C421.533 99.3636 423.141 100.966 425.158 100.966C426.391 100.966 427.447 100.364 428.044 99.3864H428.135C428.129 102.062 427.124 103.625 425.419 103.625C424.305 103.625 423.589 102.943 423.362 101.949H421.629C421.885 103.83 423.339 105.159 425.419 105.159C428.124 105.159 429.817 102.835 429.817 98.7614C429.811 94.5114 427.641 93.2216 425.567 93.2045ZM425.572 94.6818C426.919 94.6818 427.913 95.8239 427.913 97.1023C427.919 98.3977 426.868 99.5341 425.538 99.5341C424.203 99.5341 423.237 98.4659 423.232 97.1193C423.232 95.767 424.237 94.6818 425.572 94.6818Z" fill="#9C9C9C"/>
<path d="M130.705 130.875H134.33V141H136.08V130.875H139.71V129.364H130.705V130.875ZM143.263 135.818C143.263 134.426 144.143 133.631 145.354 133.631C146.524 133.631 147.223 134.375 147.223 135.653V141H148.922V135.449C148.922 133.273 147.729 132.159 145.933 132.159C144.575 132.159 143.757 132.75 143.348 133.693H143.24V129.364H141.564V141H143.263V135.818ZM151.189 141H152.888V132.273H151.189V141ZM152.047 130.926C152.632 130.926 153.121 130.472 153.121 129.915C153.121 129.358 152.632 128.898 152.047 128.898C151.456 128.898 150.973 129.358 150.973 129.915C150.973 130.472 151.456 130.926 152.047 130.926ZM161.713 134.403C161.361 133.045 160.298 132.159 158.412 132.159C156.44 132.159 155.043 133.199 155.043 134.744C155.043 135.983 155.793 136.807 157.429 137.17L158.906 137.494C159.747 137.682 160.139 138.057 160.139 138.602C160.139 139.278 159.418 139.807 158.304 139.807C157.287 139.807 156.634 139.369 156.429 138.511L154.787 138.761C155.071 140.307 156.355 141.176 158.315 141.176C160.423 141.176 161.884 140.057 161.884 138.477C161.884 137.244 161.099 136.483 159.497 136.114L158.111 135.795C157.151 135.568 156.736 135.244 156.741 134.653C156.736 133.983 157.463 133.506 158.429 133.506C159.486 133.506 159.974 134.091 160.173 134.676L161.713 134.403ZM171.662 141.176C173.724 141.176 175.06 139.938 175.247 138.239H173.594C173.378 139.182 172.645 139.739 171.673 139.739C170.236 139.739 169.31 138.54 169.31 136.636C169.31 134.767 170.253 133.591 171.673 133.591C172.753 133.591 173.412 134.273 173.594 135.091H175.247C175.065 133.33 173.628 132.159 171.645 132.159C169.185 132.159 167.594 134.011 167.594 136.676C167.594 139.307 169.128 141.176 171.662 141.176ZM178.763 129.364H177.064V141H178.763V129.364ZM183.588 141.193C185.031 141.193 185.844 140.46 186.168 139.807H186.236V141H187.895V135.205C187.895 132.665 185.895 132.159 184.509 132.159C182.929 132.159 181.474 132.795 180.906 134.386L182.503 134.75C182.753 134.131 183.389 133.534 184.531 133.534C185.628 133.534 186.19 134.108 186.19 135.097V135.136C186.19 135.756 185.554 135.744 183.986 135.926C182.332 136.119 180.639 136.551 180.639 138.534C180.639 140.25 181.929 141.193 183.588 141.193ZM183.957 139.83C182.997 139.83 182.304 139.398 182.304 138.557C182.304 137.648 183.111 137.324 184.094 137.193C184.645 137.119 185.952 136.972 186.196 136.727V137.852C186.196 138.886 185.372 139.83 183.957 139.83ZM196.697 134.403C196.345 133.045 195.283 132.159 193.396 132.159C191.425 132.159 190.027 133.199 190.027 134.744C190.027 135.983 190.777 136.807 192.413 137.17L193.891 137.494C194.732 137.682 195.124 138.057 195.124 138.602C195.124 139.278 194.402 139.807 193.288 139.807C192.271 139.807 191.618 139.369 191.413 138.511L189.771 138.761C190.055 140.307 191.339 141.176 193.3 141.176C195.408 141.176 196.868 140.057 196.868 138.477C196.868 137.244 196.084 136.483 194.482 136.114L193.095 135.795C192.135 135.568 191.72 135.244 191.726 134.653C191.72 133.983 192.447 133.506 193.413 133.506C194.47 133.506 194.959 134.091 195.158 134.676L196.697 134.403ZM205.276 134.403C204.923 133.045 203.861 132.159 201.974 132.159C200.003 132.159 198.605 133.199 198.605 134.744C198.605 135.983 199.355 136.807 200.991 137.17L202.469 137.494C203.31 137.682 203.702 138.057 203.702 138.602C203.702 139.278 202.98 139.807 201.866 139.807C200.849 139.807 200.196 139.369 199.991 138.511L198.349 138.761C198.634 140.307 199.918 141.176 201.878 141.176C203.986 141.176 205.446 140.057 205.446 138.477C205.446 137.244 204.662 136.483 203.06 136.114L201.673 135.795C200.713 135.568 200.298 135.244 200.304 134.653C200.298 133.983 201.026 133.506 201.991 133.506C203.048 133.506 203.537 134.091 203.736 134.676L205.276 134.403ZM211.548 141H213.247V132.273H211.548V141ZM212.406 130.926C212.991 130.926 213.48 130.472 213.48 129.915C213.48 129.358 212.991 128.898 212.406 128.898C211.815 128.898 211.332 129.358 211.332 129.915C211.332 130.472 211.815 130.926 212.406 130.926ZM222.072 134.403C221.72 133.045 220.658 132.159 218.771 132.159C216.8 132.159 215.402 133.199 215.402 134.744C215.402 135.983 216.152 136.807 217.788 137.17L219.266 137.494C220.107 137.682 220.499 138.057 220.499 138.602C220.499 139.278 219.777 139.807 218.663 139.807C217.646 139.807 216.993 139.369 216.788 138.511L215.146 138.761C215.43 140.307 216.714 141.176 218.675 141.176C220.783 141.176 222.243 140.057 222.243 138.477C222.243 137.244 221.459 136.483 219.857 136.114L218.47 135.795C217.51 135.568 217.095 135.244 217.101 134.653C217.095 133.983 217.822 133.506 218.788 133.506C219.845 133.506 220.334 134.091 220.533 134.676L222.072 134.403ZM228.345 144.273H230.044V139.642H230.146C230.453 140.199 231.078 141.17 232.669 141.17C234.783 141.17 236.317 139.477 236.317 136.653C236.317 133.824 234.76 132.159 232.652 132.159C231.033 132.159 230.447 133.148 230.146 133.688H230.004V132.273H228.345V144.273ZM230.01 136.636C230.01 134.812 230.805 133.602 232.288 133.602C233.828 133.602 234.601 134.903 234.601 136.636C234.601 138.386 233.805 139.722 232.288 139.722C230.828 139.722 230.01 138.472 230.01 136.636ZM238.22 141H239.919V135.67C239.919 134.528 240.8 133.705 242.004 133.705C242.357 133.705 242.754 133.767 242.891 133.807V132.182C242.72 132.159 242.385 132.142 242.169 132.142C241.146 132.142 240.271 132.722 239.953 133.659H239.862V132.273H238.22V141ZM247.81 141.176C249.713 141.176 251.06 140.239 251.446 138.818L249.838 138.528C249.531 139.352 248.793 139.773 247.827 139.773C246.372 139.773 245.395 138.83 245.349 137.148H251.554V136.545C251.554 133.392 249.668 132.159 247.69 132.159C245.259 132.159 243.656 134.011 243.656 136.693C243.656 139.403 245.236 141.176 247.81 141.176ZM245.355 135.875C245.423 134.636 246.321 133.562 247.702 133.562C249.02 133.562 249.884 134.54 249.889 135.875H245.355ZM257.513 132.273H255.723V130.182H254.024V132.273H252.746V133.636H254.024V138.79C254.018 140.375 255.229 141.142 256.57 141.114C257.109 141.108 257.473 141.006 257.672 140.932L257.365 139.528C257.251 139.551 257.041 139.602 256.768 139.602C256.217 139.602 255.723 139.42 255.723 138.438V133.636H257.513V132.273ZM263.466 132.273H261.676V130.182H259.977V132.273H258.699V133.636H259.977V138.79C259.972 140.375 261.182 141.142 262.523 141.114C263.062 141.108 263.426 141.006 263.625 140.932L263.318 139.528C263.205 139.551 262.994 139.602 262.722 139.602C262.17 139.602 261.676 139.42 261.676 138.438V133.636H263.466V132.273ZM266.419 144.273C267.822 144.273 268.709 143.54 269.214 142.165L272.822 132.29L270.987 132.273L268.777 139.045H268.686L266.476 132.273H264.658L267.851 141.114L267.641 141.693C267.209 142.852 266.601 142.949 265.669 142.693L265.26 144.085C265.464 144.176 265.908 144.273 266.419 144.273ZM282.317 144.455C284.538 144.455 286.254 143.438 286.254 141.193V132.273H284.589V133.688H284.464C284.163 133.148 283.561 132.159 281.936 132.159C279.828 132.159 278.277 133.824 278.277 136.602C278.277 139.386 279.862 140.869 281.925 140.869C283.527 140.869 284.146 139.966 284.453 139.409H284.561V141.125C284.561 142.494 283.624 143.085 282.334 143.085C280.919 143.085 280.368 142.375 280.067 141.875L278.607 142.477C279.067 143.545 280.232 144.455 282.317 144.455ZM282.3 139.46C280.783 139.46 279.993 138.295 279.993 136.58C279.993 134.903 280.766 133.602 282.3 133.602C283.783 133.602 284.578 134.812 284.578 136.58C284.578 138.381 283.766 139.46 282.3 139.46ZM288.533 141H290.232V135.67C290.232 134.528 291.112 133.705 292.317 133.705C292.669 133.705 293.067 133.767 293.203 133.807V132.182C293.033 132.159 292.697 132.142 292.482 132.142C291.459 132.142 290.584 132.722 290.266 133.659H290.175V132.273H288.533V141ZM298.122 141.176C300.026 141.176 301.372 140.239 301.759 138.818L300.151 138.528C299.844 139.352 299.105 139.773 298.139 139.773C296.685 139.773 295.707 138.83 295.662 137.148H301.866V136.545C301.866 133.392 299.98 132.159 298.003 132.159C295.571 132.159 293.969 134.011 293.969 136.693C293.969 139.403 295.548 141.176 298.122 141.176ZM295.668 135.875C295.736 134.636 296.634 133.562 298.014 133.562C299.332 133.562 300.196 134.54 300.202 135.875H295.668ZM306.291 141.193C307.734 141.193 308.547 140.46 308.871 139.807H308.939V141H310.598V135.205C310.598 132.665 308.598 132.159 307.212 132.159C305.632 132.159 304.178 132.795 303.609 134.386L305.206 134.75C305.456 134.131 306.092 133.534 307.234 133.534C308.331 133.534 308.893 134.108 308.893 135.097V135.136C308.893 135.756 308.257 135.744 306.689 135.926C305.036 136.119 303.342 136.551 303.342 138.534C303.342 140.25 304.632 141.193 306.291 141.193ZM306.661 139.83C305.7 139.83 305.007 139.398 305.007 138.557C305.007 137.648 305.814 137.324 306.797 137.193C307.348 137.119 308.655 136.972 308.899 136.727V137.852C308.899 138.886 308.075 139.83 306.661 139.83ZM316.935 132.273H315.145V130.182H313.446V132.273H312.168V133.636H313.446V138.79C313.44 140.375 314.651 141.142 315.991 141.114C316.531 141.108 316.895 141.006 317.094 140.932L316.787 139.528C316.673 139.551 316.463 139.602 316.19 139.602C315.639 139.602 315.145 139.42 315.145 138.438V133.636H316.935V132.273ZM319.933 141.108C320.553 141.108 321.07 140.602 321.07 139.972C321.07 139.352 320.553 138.841 319.933 138.841C319.308 138.841 318.797 139.352 318.797 139.972C318.797 140.602 319.308 141.108 319.933 141.108ZM327.528 141H329.284V136.909H331.67C334.369 136.909 335.705 135.278 335.705 133.131C335.705 130.989 334.381 129.364 331.676 129.364H327.528V141ZM329.284 135.42V130.869H331.489C333.227 130.869 333.938 131.812 333.938 133.131C333.938 134.449 333.227 135.42 331.511 135.42H329.284ZM337.626 141H339.325V135.67C339.325 134.528 340.206 133.705 341.411 133.705C341.763 133.705 342.161 133.767 342.297 133.807V132.182C342.126 132.159 341.791 132.142 341.575 132.142C340.553 132.142 339.678 132.722 339.359 133.659H339.268V132.273H337.626V141ZM347.131 141.176C349.591 141.176 351.199 139.375 351.199 136.676C351.199 133.96 349.591 132.159 347.131 132.159C344.67 132.159 343.062 133.96 343.062 136.676C343.062 139.375 344.67 141.176 347.131 141.176ZM347.136 139.75C345.528 139.75 344.778 138.347 344.778 136.67C344.778 135 345.528 133.58 347.136 133.58C348.733 133.58 349.483 135 349.483 136.67C349.483 138.347 348.733 139.75 347.136 139.75ZM357.249 132.273H355.368V131.489C355.368 130.716 355.686 130.295 356.516 130.295C356.868 130.295 357.118 130.375 357.277 130.426L357.675 129.051C357.436 128.96 356.942 128.818 356.254 128.818C354.874 128.818 353.663 129.625 353.663 131.261V132.273H352.317V133.636H353.663V141H355.368V133.636H357.249V132.273ZM362.419 141.176C364.322 141.176 365.669 140.239 366.055 138.818L364.447 138.528C364.141 139.352 363.402 139.773 362.436 139.773C360.982 139.773 360.004 138.83 359.959 137.148H366.163V136.545C366.163 133.392 364.277 132.159 362.3 132.159C359.868 132.159 358.266 134.011 358.266 136.693C358.266 139.403 359.845 141.176 362.419 141.176ZM359.964 135.875C360.033 134.636 360.93 133.562 362.311 133.562C363.629 133.562 364.493 134.54 364.499 135.875H359.964ZM374.588 134.403C374.236 133.045 373.173 132.159 371.287 132.159C369.315 132.159 367.918 133.199 367.918 134.744C367.918 135.983 368.668 136.807 370.304 137.17L371.781 137.494C372.622 137.682 373.014 138.057 373.014 138.602C373.014 139.278 372.293 139.807 371.179 139.807C370.162 139.807 369.509 139.369 369.304 138.511L367.662 138.761C367.946 140.307 369.23 141.176 371.19 141.176C373.298 141.176 374.759 140.057 374.759 138.477C374.759 137.244 373.974 136.483 372.372 136.114L370.986 135.795C370.026 135.568 369.611 135.244 369.616 134.653C369.611 133.983 370.338 133.506 371.304 133.506C372.361 133.506 372.849 134.091 373.048 134.676L374.588 134.403ZM383.166 134.403C382.814 133.045 381.751 132.159 379.865 132.159C377.893 132.159 376.496 133.199 376.496 134.744C376.496 135.983 377.246 136.807 378.882 137.17L380.359 137.494C381.2 137.682 381.592 138.057 381.592 138.602C381.592 139.278 380.871 139.807 379.757 139.807C378.74 139.807 378.087 139.369 377.882 138.511L376.24 138.761C376.524 140.307 377.808 141.176 379.768 141.176C381.876 141.176 383.337 140.057 383.337 138.477C383.337 137.244 382.553 136.483 380.95 136.114L379.564 135.795C378.604 135.568 378.189 135.244 378.195 134.653C378.189 133.983 378.916 133.506 379.882 133.506C380.939 133.506 381.428 134.091 381.626 134.676L383.166 134.403ZM388.881 141.176C391.341 141.176 392.949 139.375 392.949 136.676C392.949 133.96 391.341 132.159 388.881 132.159C386.42 132.159 384.812 133.96 384.812 136.676C384.812 139.375 386.42 141.176 388.881 141.176ZM388.886 139.75C387.278 139.75 386.528 138.347 386.528 136.67C386.528 135 387.278 133.58 388.886 133.58C390.483 133.58 391.233 135 391.233 136.67C391.233 138.347 390.483 139.75 388.886 139.75ZM394.845 141H396.544V135.67C396.544 134.528 397.425 133.705 398.629 133.705C398.982 133.705 399.379 133.767 399.516 133.807V132.182C399.345 132.159 399.01 132.142 398.794 132.142C397.771 132.142 396.896 132.722 396.578 133.659H396.487V132.273H394.845V141ZM405.357 141H412.385V139.489H407.112V129.364H405.357V141ZM414.251 141H415.95V132.273H414.251V141ZM415.109 130.926C415.695 130.926 416.183 130.472 416.183 129.915C416.183 129.358 415.695 128.898 415.109 128.898C414.518 128.898 414.036 129.358 414.036 129.915C414.036 130.472 414.518 130.926 415.109 130.926ZM425.702 132.273H423.878L421.673 138.989H421.582L419.372 132.273H417.548L420.719 141H422.537L425.702 132.273ZM429.305 129.364H427.851V130.472C427.851 131.352 427.464 132.074 427.021 132.727L427.862 133.33C428.737 132.625 429.305 131.42 429.305 130.455V129.364ZM436.385 134.403C436.033 133.045 434.97 132.159 433.084 132.159C431.112 132.159 429.714 133.199 429.714 134.744C429.714 135.983 430.464 136.807 432.101 137.17L433.578 137.494C434.419 137.682 434.811 138.057 434.811 138.602C434.811 139.278 434.089 139.807 432.976 139.807C431.959 139.807 431.305 139.369 431.101 138.511L429.459 138.761C429.743 140.307 431.027 141.176 432.987 141.176C435.095 141.176 436.555 140.057 436.555 138.477C436.555 137.244 435.771 136.483 434.169 136.114L432.783 135.795C431.822 135.568 431.408 135.244 431.413 134.653C431.408 133.983 432.135 133.506 433.101 133.506C434.158 133.506 434.646 134.091 434.845 134.676L436.385 134.403ZM446.419 141.176C448.322 141.176 449.669 140.239 450.055 138.818L448.447 138.528C448.141 139.352 447.402 139.773 446.436 139.773C444.982 139.773 444.004 138.83 443.959 137.148H450.163V136.545C450.163 133.392 448.277 132.159 446.3 132.159C443.868 132.159 442.266 134.011 442.266 136.693C442.266 139.403 443.845 141.176 446.419 141.176ZM443.964 135.875C444.033 134.636 444.93 133.562 446.311 133.562C447.629 133.562 448.493 134.54 448.499 135.875H443.964ZM453.747 135.818C453.747 134.426 454.599 133.631 455.781 133.631C456.935 133.631 457.634 134.386 457.634 135.653V141H459.332V135.449C459.332 133.29 458.145 132.159 456.361 132.159C455.048 132.159 454.19 132.767 453.787 133.693H453.679V132.273H452.048V141H453.747V135.818ZM465.685 132.273H463.895V130.182H462.196V132.273H460.918V133.636H462.196V138.79C462.19 140.375 463.401 141.142 464.741 141.114C465.281 141.108 465.645 141.006 465.844 140.932L465.537 139.528C465.423 139.551 465.213 139.602 464.94 139.602C464.389 139.602 463.895 139.42 463.895 138.438V133.636H465.685V132.273ZM469.45 135.818C469.45 134.426 470.331 133.631 471.541 133.631C472.712 133.631 473.411 134.375 473.411 135.653V141H475.109V135.449C475.109 133.273 473.916 132.159 472.121 132.159C470.763 132.159 469.945 132.75 469.536 133.693H469.428V129.364H467.751V141H469.45V135.818ZM482.905 137.381C482.911 138.864 481.808 139.568 480.854 139.568C479.803 139.568 479.075 138.807 479.075 137.619V132.273H477.376V137.824C477.376 139.989 478.564 141.114 480.24 141.114C481.553 141.114 482.445 140.42 482.848 139.489H482.939V141H484.609V132.273H482.905V137.381ZM493.432 134.403C493.08 133.045 492.017 132.159 490.131 132.159C488.159 132.159 486.761 133.199 486.761 134.744C486.761 135.983 487.511 136.807 489.148 137.17L490.625 137.494C491.466 137.682 491.858 138.057 491.858 138.602C491.858 139.278 491.136 139.807 490.023 139.807C489.006 139.807 488.352 139.369 488.148 138.511L486.506 138.761C486.79 140.307 488.074 141.176 490.034 141.176C492.142 141.176 493.602 140.057 493.602 138.477C493.602 137.244 492.818 136.483 491.216 136.114L489.83 135.795C488.869 135.568 488.455 135.244 488.46 134.653C488.455 133.983 489.182 133.506 490.148 133.506C491.205 133.506 491.693 134.091 491.892 134.676L493.432 134.403ZM495.47 141H497.169V132.273H495.47V141ZM496.328 130.926C496.913 130.926 497.402 130.472 497.402 129.915C497.402 129.358 496.913 128.898 496.328 128.898C495.737 128.898 495.254 129.358 495.254 129.915C495.254 130.472 495.737 130.926 496.328 130.926ZM501.994 141.193C503.438 141.193 504.25 140.46 504.574 139.807H504.642V141H506.301V135.205C506.301 132.665 504.301 132.159 502.915 132.159C501.335 132.159 499.881 132.795 499.312 134.386L500.909 134.75C501.159 134.131 501.795 133.534 502.938 133.534C504.034 133.534 504.597 134.108 504.597 135.097V135.136C504.597 135.756 503.96 135.744 502.392 135.926C500.739 136.119 499.045 136.551 499.045 138.534C499.045 140.25 500.335 141.193 501.994 141.193ZM502.364 139.83C501.403 139.83 500.71 139.398 500.71 138.557C500.71 137.648 501.517 137.324 502.5 137.193C503.051 137.119 504.358 136.972 504.602 136.727V137.852C504.602 138.886 503.778 139.83 502.364 139.83ZM515.104 134.403C514.751 133.045 513.689 132.159 511.803 132.159C509.831 132.159 508.433 133.199 508.433 134.744C508.433 135.983 509.183 136.807 510.82 137.17L512.297 137.494C513.138 137.682 513.53 138.057 513.53 138.602C513.53 139.278 512.808 139.807 511.695 139.807C510.678 139.807 510.024 139.369 509.82 138.511L508.178 138.761C508.462 140.307 509.746 141.176 511.706 141.176C513.814 141.176 515.274 140.057 515.274 138.477C515.274 137.244 514.49 136.483 512.888 136.114L511.501 135.795C510.541 135.568 510.126 135.244 510.132 134.653C510.126 133.983 510.854 133.506 511.82 133.506C512.876 133.506 513.365 134.091 513.564 134.676L515.104 134.403ZM517.142 141H518.841V135.619C518.841 134.443 519.665 133.625 520.631 133.625C521.574 133.625 522.227 134.25 522.227 135.199V141H523.92V135.438C523.92 134.386 524.562 133.625 525.67 133.625C526.568 133.625 527.307 134.125 527.307 135.307V141H529.006V135.148C529.006 133.153 527.892 132.159 526.312 132.159C525.057 132.159 524.114 132.761 523.693 133.693H523.602C523.222 132.739 522.42 132.159 521.256 132.159C520.102 132.159 519.244 132.733 518.881 133.693H518.773V132.273H517.142V141ZM535.517 141H537.216V135.619C537.216 134.443 538.04 133.625 539.006 133.625C539.949 133.625 540.602 134.25 540.602 135.199V141H542.295V135.438C542.295 134.386 542.938 133.625 544.045 133.625C544.943 133.625 545.682 134.125 545.682 135.307V141H547.381V135.148C547.381 133.153 546.267 132.159 544.688 132.159C543.432 132.159 542.489 132.761 542.068 133.693H541.977C541.597 132.739 540.795 132.159 539.631 132.159C538.477 132.159 537.619 132.733 537.256 133.693H537.148V132.273H535.517V141ZM552.197 141.193C553.641 141.193 554.453 140.46 554.777 139.807H554.845V141H556.504V135.205C556.504 132.665 554.504 132.159 553.118 132.159C551.538 132.159 550.084 132.795 549.516 134.386L551.112 134.75C551.362 134.131 551.999 133.534 553.141 133.534C554.237 133.534 554.8 134.108 554.8 135.097V135.136C554.8 135.756 554.163 135.744 552.595 135.926C550.942 136.119 549.249 136.551 549.249 138.534C549.249 140.25 550.538 141.193 552.197 141.193ZM552.567 139.83C551.607 139.83 550.913 139.398 550.913 138.557C550.913 137.648 551.72 137.324 552.703 137.193C553.254 137.119 554.561 136.972 554.805 136.727V137.852C554.805 138.886 553.982 139.83 552.567 139.83ZM558.767 141H560.466V137.903L561.312 137.057L564.278 141H566.364L562.591 136.017L566.125 132.273H564.091L560.614 135.966H560.466V129.364H558.767V141ZM571.075 141.176C572.979 141.176 574.325 140.239 574.712 138.818L573.104 138.528C572.797 139.352 572.058 139.773 571.092 139.773C569.638 139.773 568.661 138.83 568.615 137.148H574.82V136.545C574.82 133.392 572.933 132.159 570.956 132.159C568.524 132.159 566.922 134.011 566.922 136.693C566.922 139.403 568.501 141.176 571.075 141.176ZM568.621 135.875C568.689 134.636 569.587 133.562 570.967 133.562C572.286 133.562 573.149 134.54 573.155 135.875H568.621ZM583.244 134.403C582.892 133.045 581.83 132.159 579.943 132.159C577.972 132.159 576.574 133.199 576.574 134.744C576.574 135.983 577.324 136.807 578.96 137.17L580.438 137.494C581.278 137.682 581.67 138.057 581.67 138.602C581.67 139.278 580.949 139.807 579.835 139.807C578.818 139.807 578.165 139.369 577.96 138.511L576.318 138.761C576.602 140.307 577.886 141.176 579.847 141.176C581.955 141.176 583.415 140.057 583.415 138.477C583.415 137.244 582.631 136.483 581.028 136.114L579.642 135.795C578.682 135.568 578.267 135.244 578.273 134.653C578.267 133.983 578.994 133.506 579.96 133.506C581.017 133.506 581.506 134.091 581.705 134.676L583.244 134.403ZM589.517 141H591.216V132.273H589.517V141ZM590.375 130.926C590.96 130.926 591.449 130.472 591.449 129.915C591.449 129.358 590.96 128.898 590.375 128.898C589.784 128.898 589.301 129.358 589.301 129.915C589.301 130.472 589.784 130.926 590.375 130.926ZM597.575 132.273H595.786V130.182H594.087V132.273H592.808V133.636H594.087V138.79C594.081 140.375 595.291 141.142 596.632 141.114C597.172 141.108 597.536 141.006 597.734 140.932L597.428 139.528C597.314 139.551 597.104 139.602 596.831 139.602C596.28 139.602 595.786 139.42 595.786 138.438V133.636H597.575V132.273ZM603.689 141H605.388V135.67C605.388 134.528 606.268 133.705 607.473 133.705C607.825 133.705 608.223 133.767 608.359 133.807V132.182C608.189 132.159 607.854 132.142 607.638 132.142C606.615 132.142 605.74 132.722 605.422 133.659H605.331V132.273H603.689V141ZM613.278 141.176C615.182 141.176 616.528 140.239 616.915 138.818L615.307 138.528C615 139.352 614.261 139.773 613.295 139.773C611.841 139.773 610.864 138.83 610.818 137.148H617.023V136.545C617.023 133.392 615.136 132.159 613.159 132.159C610.727 132.159 609.125 134.011 609.125 136.693C609.125 139.403 610.705 141.176 613.278 141.176ZM610.824 135.875C610.892 134.636 611.79 133.562 613.17 133.562C614.489 133.562 615.352 134.54 615.358 135.875H610.824ZM621.447 141.193C622.891 141.193 623.703 140.46 624.027 139.807H624.095V141H625.754V135.205C625.754 132.665 623.754 132.159 622.368 132.159C620.788 132.159 619.334 132.795 618.766 134.386L620.362 134.75C620.612 134.131 621.249 133.534 622.391 133.534C623.487 133.534 624.05 134.108 624.05 135.097V135.136C624.05 135.756 623.413 135.744 621.845 135.926C620.192 136.119 618.499 136.551 618.499 138.534C618.499 140.25 619.788 141.193 621.447 141.193ZM621.817 139.83C620.857 139.83 620.163 139.398 620.163 138.557C620.163 137.648 620.97 137.324 621.953 137.193C622.504 137.119 623.811 136.972 624.055 136.727V137.852C624.055 138.886 623.232 139.83 621.817 139.83ZM629.716 129.364H628.017V141H629.716V129.364ZM633.7 129.364H632.001V141H633.7V129.364ZM637.06 144.273C638.463 144.273 639.349 143.54 639.855 142.165L643.463 132.29L641.628 132.273L639.418 139.045H639.327L637.116 132.273H635.298L638.491 141.114L638.281 141.693C637.849 142.852 637.241 142.949 636.31 142.693L635.901 144.085C636.105 144.176 636.548 144.273 637.06 144.273ZM652.974 141.176C655.037 141.176 656.372 139.938 656.56 138.239H654.906C654.69 139.182 653.957 139.739 652.986 139.739C651.548 139.739 650.622 138.54 650.622 136.636C650.622 134.767 651.565 133.591 652.986 133.591C654.065 133.591 654.724 134.273 654.906 135.091H656.56C656.378 133.33 654.94 132.159 652.957 132.159C650.497 132.159 648.906 134.011 648.906 136.676C648.906 139.307 650.44 141.176 652.974 141.176ZM660.075 135.818C660.075 134.426 660.956 133.631 662.166 133.631C663.337 133.631 664.036 134.375 664.036 135.653V141H665.734V135.449C665.734 133.273 664.541 132.159 662.746 132.159C661.388 132.159 660.57 132.75 660.161 133.693H660.053V129.364H658.376V141H660.075V135.818ZM668.001 141H669.7V132.273H668.001V141ZM668.859 130.926C669.445 130.926 669.933 130.472 669.933 129.915C669.933 129.358 669.445 128.898 668.859 128.898C668.268 128.898 667.786 129.358 667.786 129.915C667.786 130.472 668.268 130.926 668.859 130.926ZM673.685 129.364H671.986V141H673.685V129.364ZM677.669 129.364H675.97V141H677.669V129.364ZM686.729 141.193C688.172 141.193 688.984 140.46 689.308 139.807H689.376V141H691.036V135.205C691.036 132.665 689.036 132.159 687.649 132.159C686.07 132.159 684.615 132.795 684.047 134.386L685.643 134.75C685.893 134.131 686.53 133.534 687.672 133.534C688.768 133.534 689.331 134.108 689.331 135.097V135.136C689.331 135.756 688.695 135.744 687.126 135.926C685.473 136.119 683.78 136.551 683.78 138.534C683.78 140.25 685.07 141.193 686.729 141.193ZM687.098 139.83C686.138 139.83 685.445 139.398 685.445 138.557C685.445 137.648 686.251 137.324 687.234 137.193C687.786 137.119 689.092 136.972 689.337 136.727V137.852C689.337 138.886 688.513 139.83 687.098 139.83ZM694.997 135.818C694.997 134.426 695.849 133.631 697.031 133.631C698.185 133.631 698.884 134.386 698.884 135.653V141H700.582V135.449C700.582 133.29 699.395 132.159 697.611 132.159C696.298 132.159 695.44 132.767 695.037 133.693H694.929V132.273H693.298V141H694.997V135.818ZM706.128 141.17C707.719 141.17 708.344 140.199 708.651 139.642H708.793V141H710.452V129.364H708.753V133.688H708.651C708.344 133.148 707.764 132.159 706.139 132.159C704.031 132.159 702.48 133.824 702.48 136.653C702.48 139.477 704.009 141.17 706.128 141.17ZM706.503 139.722C704.986 139.722 704.196 138.386 704.196 136.636C704.196 134.903 704.969 133.602 706.503 133.602C707.986 133.602 708.781 134.812 708.781 136.636C708.781 138.472 707.969 139.722 706.503 139.722ZM137.682 153.403C137.33 152.045 136.267 151.159 134.381 151.159C132.409 151.159 131.011 152.199 131.011 153.744C131.011 154.983 131.761 155.807 133.398 156.17L134.875 156.494C135.716 156.682 136.108 157.057 136.108 157.602C136.108 158.278 135.386 158.807 134.273 158.807C133.256 158.807 132.602 158.369 132.398 157.511L130.756 157.761C131.04 159.307 132.324 160.176 134.284 160.176C136.392 160.176 137.852 159.057 137.852 157.477C137.852 156.244 137.068 155.483 135.466 155.114L134.08 154.795C133.119 154.568 132.705 154.244 132.71 153.653C132.705 152.983 133.432 152.506 134.398 152.506C135.455 152.506 135.943 153.091 136.142 153.676L137.682 153.403ZM141.419 154.818C141.419 153.426 142.3 152.631 143.51 152.631C144.68 152.631 145.379 153.375 145.379 154.653V160H147.078V154.449C147.078 152.273 145.885 151.159 144.089 151.159C142.732 151.159 141.913 151.75 141.504 152.693H141.396V148.364H139.72V160H141.419V154.818ZM153.107 160.176C155.01 160.176 156.357 159.239 156.743 157.818L155.135 157.528C154.828 158.352 154.089 158.773 153.124 158.773C151.669 158.773 150.692 157.83 150.646 156.148H156.851V155.545C156.851 152.392 154.964 151.159 152.987 151.159C150.555 151.159 148.953 153.011 148.953 155.693C148.953 158.403 150.533 160.176 153.107 160.176ZM150.652 154.875C150.72 153.636 151.618 152.562 152.999 152.562C154.317 152.562 155.18 153.54 155.186 154.875H150.652ZM160.196 148.364H158.741V149.472C158.741 150.352 158.355 151.074 157.912 151.727L158.753 152.33C159.628 151.625 160.196 150.42 160.196 149.455V148.364ZM167.276 153.403C166.923 152.045 165.861 151.159 163.974 151.159C162.003 151.159 160.605 152.199 160.605 153.744C160.605 154.983 161.355 155.807 162.991 156.17L164.469 156.494C165.31 156.682 165.702 157.057 165.702 157.602C165.702 158.278 164.98 158.807 163.866 158.807C162.849 158.807 162.196 158.369 161.991 157.511L160.349 157.761C160.634 159.307 161.918 160.176 163.878 160.176C165.986 160.176 167.446 159.057 167.446 157.477C167.446 156.244 166.662 155.483 165.06 155.114L163.673 154.795C162.713 154.568 162.298 154.244 162.304 153.653C162.298 152.983 163.026 152.506 163.991 152.506C165.048 152.506 165.537 153.091 165.736 153.676L167.276 153.403ZM177.702 151.273H175.821V150.489C175.821 149.716 176.139 149.295 176.969 149.295C177.321 149.295 177.571 149.375 177.73 149.426L178.128 148.051C177.889 147.96 177.395 147.818 176.707 147.818C175.327 147.818 174.116 148.625 174.116 150.261V151.273H172.77V152.636H174.116V160H175.821V152.636H177.702V151.273ZM181.153 148.364H179.455V160H181.153V148.364ZM187.2 160.176C189.104 160.176 190.45 159.239 190.837 157.818L189.229 157.528C188.922 158.352 188.183 158.773 187.217 158.773C185.763 158.773 184.786 157.83 184.74 156.148H190.945V155.545C190.945 152.392 189.058 151.159 187.081 151.159C184.649 151.159 183.047 153.011 183.047 155.693C183.047 158.403 184.626 160.176 187.2 160.176ZM184.746 154.875C184.814 153.636 185.712 152.562 187.092 152.562C188.411 152.562 189.274 153.54 189.28 154.875H184.746ZM193.967 151.273H192.104L194.786 155.636L192.07 160H193.933L195.893 156.739L197.859 160H199.717L196.973 155.636L199.695 151.273H197.837L195.893 154.67L193.967 151.273ZM201.439 160H203.138V151.273H201.439V160ZM202.297 149.926C202.882 149.926 203.371 149.472 203.371 148.915C203.371 148.358 202.882 147.898 202.297 147.898C201.706 147.898 201.223 148.358 201.223 148.915C201.223 149.472 201.706 149.926 202.297 149.926ZM205.56 160H207.219V158.642H207.361C207.668 159.199 208.293 160.17 209.884 160.17C211.997 160.17 213.531 158.477 213.531 155.653C213.531 152.824 211.974 151.159 209.866 151.159C208.247 151.159 207.662 152.148 207.361 152.688H207.259V148.364H205.56V160ZM207.224 155.636C207.224 153.812 208.02 152.602 209.503 152.602C211.043 152.602 211.815 153.903 211.815 155.636C211.815 157.386 211.02 158.722 209.503 158.722C208.043 158.722 207.224 157.472 207.224 155.636ZM217.138 148.364H215.439V160H217.138V148.364ZM223.185 160.176C225.088 160.176 226.435 159.239 226.821 157.818L225.213 157.528C224.906 158.352 224.168 158.773 223.202 158.773C221.747 158.773 220.77 157.83 220.724 156.148H226.929V155.545C226.929 152.392 225.043 151.159 223.065 151.159C220.634 151.159 219.031 153.011 219.031 155.693C219.031 158.403 220.611 160.176 223.185 160.176ZM220.73 154.875C220.798 153.636 221.696 152.562 223.077 152.562C224.395 152.562 225.259 153.54 225.264 154.875H220.73ZM236.724 160.176C239.185 160.176 240.793 158.375 240.793 155.676C240.793 152.96 239.185 151.159 236.724 151.159C234.264 151.159 232.656 152.96 232.656 155.676C232.656 158.375 234.264 160.176 236.724 160.176ZM236.73 158.75C235.122 158.75 234.372 157.347 234.372 155.67C234.372 154 235.122 152.58 236.73 152.58C238.327 152.58 239.077 154 239.077 155.67C239.077 157.347 238.327 158.75 236.73 158.75ZM244.388 154.818C244.388 153.426 245.24 152.631 246.422 152.631C247.575 152.631 248.274 153.386 248.274 154.653V160H249.973V154.449C249.973 152.29 248.786 151.159 247.001 151.159C245.689 151.159 244.831 151.767 244.428 152.693H244.32V151.273H242.689V160H244.388V154.818ZM259.753 160.17C261.344 160.17 261.969 159.199 262.276 158.642H262.418V160H264.077V148.364H262.378V152.688H262.276C261.969 152.148 261.389 151.159 259.764 151.159C257.656 151.159 256.105 152.824 256.105 155.653C256.105 158.477 257.634 160.17 259.753 160.17ZM260.128 158.722C258.611 158.722 257.821 157.386 257.821 155.636C257.821 153.903 258.594 152.602 260.128 152.602C261.611 152.602 262.406 153.812 262.406 155.636C262.406 157.472 261.594 158.722 260.128 158.722ZM270.263 160.176C272.166 160.176 273.513 159.239 273.899 157.818L272.291 157.528C271.984 158.352 271.246 158.773 270.28 158.773C268.825 158.773 267.848 157.83 267.803 156.148H274.007V155.545C274.007 152.392 272.121 151.159 270.143 151.159C267.712 151.159 266.109 153.011 266.109 155.693C266.109 158.403 267.689 160.176 270.263 160.176ZM267.808 154.875C267.876 153.636 268.774 152.562 270.155 152.562C271.473 152.562 272.337 153.54 272.342 154.875H267.808ZM278.432 160.193C279.875 160.193 280.688 159.46 281.011 158.807H281.08V160H282.739V154.205C282.739 151.665 280.739 151.159 279.352 151.159C277.773 151.159 276.318 151.795 275.75 153.386L277.347 153.75C277.597 153.131 278.233 152.534 279.375 152.534C280.472 152.534 281.034 153.108 281.034 154.097V154.136C281.034 154.756 280.398 154.744 278.83 154.926C277.176 155.119 275.483 155.551 275.483 157.534C275.483 159.25 276.773 160.193 278.432 160.193ZM278.801 158.83C277.841 158.83 277.148 158.398 277.148 157.557C277.148 156.648 277.955 156.324 278.938 156.193C279.489 156.119 280.795 155.972 281.04 155.727V156.852C281.04 157.886 280.216 158.83 278.801 158.83ZM288.268 160.17C289.859 160.17 290.484 159.199 290.791 158.642H290.933V160H292.592V148.364H290.893V152.688H290.791C290.484 152.148 289.905 151.159 288.28 151.159C286.172 151.159 284.621 152.824 284.621 155.653C284.621 158.477 286.149 160.17 288.268 160.17ZM288.643 158.722C287.126 158.722 286.337 157.386 286.337 155.636C286.337 153.903 287.109 152.602 288.643 152.602C290.126 152.602 290.922 153.812 290.922 155.636C290.922 157.472 290.109 158.722 288.643 158.722ZM296.716 148.364H295.017V160H296.716V148.364ZM299.001 160H300.7V151.273H299.001V160ZM299.859 149.926C300.445 149.926 300.933 149.472 300.933 148.915C300.933 148.358 300.445 147.898 299.859 147.898C299.268 147.898 298.786 148.358 298.786 148.915C298.786 149.472 299.268 149.926 299.859 149.926ZM304.685 154.818C304.685 153.426 305.537 152.631 306.719 152.631C307.872 152.631 308.571 153.386 308.571 154.653V160H310.27V154.449C310.27 152.29 309.082 151.159 307.298 151.159C305.986 151.159 305.128 151.767 304.724 152.693H304.616V151.273H302.986V160H304.685V154.818ZM316.31 160.176C318.213 160.176 319.56 159.239 319.946 157.818L318.338 157.528C318.031 158.352 317.293 158.773 316.327 158.773C314.872 158.773 313.895 157.83 313.849 156.148H320.054V155.545C320.054 152.392 318.168 151.159 316.19 151.159C313.759 151.159 312.156 153.011 312.156 155.693C312.156 158.403 313.736 160.176 316.31 160.176ZM313.855 154.875C313.923 153.636 314.821 152.562 316.202 152.562C317.52 152.562 318.384 153.54 318.389 154.875H313.855ZM328.479 153.403C328.126 152.045 327.064 151.159 325.178 151.159C323.206 151.159 321.808 152.199 321.808 153.744C321.808 154.983 322.558 155.807 324.195 156.17L325.672 156.494C326.513 156.682 326.905 157.057 326.905 157.602C326.905 158.278 326.183 158.807 325.07 158.807C324.053 158.807 323.399 158.369 323.195 157.511L321.553 157.761C321.837 159.307 323.121 160.176 325.081 160.176C327.189 160.176 328.649 159.057 328.649 157.477C328.649 156.244 327.865 155.483 326.263 155.114L324.876 154.795C323.916 154.568 323.501 154.244 323.507 153.653C323.501 152.983 324.229 152.506 325.195 152.506C326.251 152.506 326.74 153.091 326.939 153.676L328.479 153.403ZM331.636 160.108C332.256 160.108 332.773 159.602 332.773 158.972C332.773 158.352 332.256 157.841 331.636 157.841C331.011 157.841 330.5 158.352 330.5 158.972C330.5 159.602 331.011 160.108 331.636 160.108ZM339.232 160H340.987V154.926H346.788V160H348.55V148.364H346.788V153.42H340.987V148.364H339.232V160ZM354.646 160.176C357.107 160.176 358.714 158.375 358.714 155.676C358.714 152.96 357.107 151.159 354.646 151.159C352.186 151.159 350.578 152.96 350.578 155.676C350.578 158.375 352.186 160.176 354.646 160.176ZM354.652 158.75C353.044 158.75 352.294 157.347 352.294 155.67C352.294 154 353.044 152.58 354.652 152.58C356.249 152.58 356.999 154 356.999 155.67C356.999 157.347 356.249 158.75 354.652 158.75ZM367.764 151.273H365.94L363.736 157.989H363.645L361.435 151.273H359.611L362.781 160H364.599L367.764 151.273ZM372.81 160.176C374.713 160.176 376.06 159.239 376.446 157.818L374.838 157.528C374.531 158.352 373.793 158.773 372.827 158.773C371.372 158.773 370.395 157.83 370.349 156.148H376.554V155.545C376.554 152.392 374.668 151.159 372.69 151.159C370.259 151.159 368.656 153.011 368.656 155.693C368.656 158.403 370.236 160.176 372.81 160.176ZM370.355 154.875C370.423 153.636 371.321 152.562 372.702 152.562C374.02 152.562 374.884 153.54 374.889 154.875H370.355ZM380.315 160H382.043L383.815 153.699H383.946L385.719 160H387.452L390.014 151.273H388.259L386.56 157.653H386.474L384.77 151.273H383.014L381.298 157.682H381.213L379.503 151.273H377.747L380.315 160ZM395.122 160.176C397.026 160.176 398.372 159.239 398.759 157.818L397.151 157.528C396.844 158.352 396.105 158.773 395.139 158.773C393.685 158.773 392.707 157.83 392.662 156.148H398.866V155.545C398.866 152.392 396.98 151.159 395.003 151.159C392.571 151.159 390.969 153.011 390.969 155.693C390.969 158.403 392.548 160.176 395.122 160.176ZM392.668 154.875C392.736 153.636 393.634 152.562 395.014 152.562C396.332 152.562 397.196 153.54 397.202 154.875H392.668ZM400.751 160H402.45V154.67C402.45 153.528 403.331 152.705 404.536 152.705C404.888 152.705 405.286 152.767 405.422 152.807V151.182C405.251 151.159 404.916 151.142 404.7 151.142C403.678 151.142 402.803 151.722 402.484 152.659H402.393V151.273H400.751V160ZM414.888 160.176C416.791 160.176 418.138 159.239 418.524 157.818L416.916 157.528C416.609 158.352 415.871 158.773 414.905 158.773C413.45 158.773 412.473 157.83 412.428 156.148H418.632V155.545C418.632 152.392 416.746 151.159 414.768 151.159C412.337 151.159 410.734 153.011 410.734 155.693C410.734 158.403 412.314 160.176 414.888 160.176ZM412.433 154.875C412.501 153.636 413.399 152.562 414.78 152.562C416.098 152.562 416.962 153.54 416.967 154.875H412.433ZM421.655 151.273H419.791L422.473 155.636L419.757 160H421.621L423.581 156.739L425.547 160H427.405L424.661 155.636L427.382 151.273H425.524L423.581 154.67L421.655 151.273ZM431.651 160.193C433.094 160.193 433.906 159.46 434.23 158.807H434.298V160H435.957V154.205C435.957 151.665 433.957 151.159 432.571 151.159C430.991 151.159 429.537 151.795 428.969 153.386L430.565 153.75C430.815 153.131 431.452 152.534 432.594 152.534C433.69 152.534 434.253 153.108 434.253 154.097V154.136C434.253 154.756 433.616 154.744 432.048 154.926C430.395 155.119 428.702 155.551 428.702 157.534C428.702 159.25 429.991 160.193 431.651 160.193ZM432.02 158.83C431.06 158.83 430.366 158.398 430.366 157.557C430.366 156.648 431.173 156.324 432.156 156.193C432.707 156.119 434.014 155.972 434.259 155.727V156.852C434.259 157.886 433.435 158.83 432.02 158.83ZM438.22 160H439.919V154.619C439.919 153.443 440.743 152.625 441.709 152.625C442.652 152.625 443.305 153.25 443.305 154.199V160H444.999V154.438C444.999 153.386 445.641 152.625 446.749 152.625C447.646 152.625 448.385 153.125 448.385 154.307V160H450.084V154.148C450.084 152.153 448.97 151.159 447.391 151.159C446.135 151.159 445.192 151.761 444.771 152.693H444.68C444.3 151.739 443.499 151.159 442.334 151.159C441.18 151.159 440.322 151.733 439.959 152.693H439.851V151.273H438.22V160ZM458.901 153.403C458.548 152.045 457.486 151.159 455.599 151.159C453.628 151.159 452.23 152.199 452.23 153.744C452.23 154.983 452.98 155.807 454.616 156.17L456.094 156.494C456.935 156.682 457.327 157.057 457.327 157.602C457.327 158.278 456.605 158.807 455.491 158.807C454.474 158.807 453.821 158.369 453.616 157.511L451.974 157.761C452.259 159.307 453.543 160.176 455.503 160.176C457.611 160.176 459.071 159.057 459.071 157.477C459.071 156.244 458.287 155.483 456.685 155.114L455.298 154.795C454.338 154.568 453.923 154.244 453.929 153.653C453.923 152.983 454.651 152.506 455.616 152.506C456.673 152.506 457.162 153.091 457.361 153.676L458.901 153.403ZM468.849 160.176C470.912 160.176 472.247 158.938 472.435 157.239H470.781C470.565 158.182 469.832 158.739 468.861 158.739C467.423 158.739 466.497 157.54 466.497 155.636C466.497 153.767 467.44 152.591 468.861 152.591C469.94 152.591 470.599 153.273 470.781 154.091H472.435C472.253 152.33 470.815 151.159 468.832 151.159C466.372 151.159 464.781 153.011 464.781 155.676C464.781 158.307 466.315 160.176 468.849 160.176ZM476.791 160.193C478.234 160.193 479.047 159.46 479.371 158.807H479.439V160H481.098V154.205C481.098 151.665 479.098 151.159 477.712 151.159C476.132 151.159 474.678 151.795 474.109 153.386L475.706 153.75C475.956 153.131 476.592 152.534 477.734 152.534C478.831 152.534 479.393 153.108 479.393 154.097V154.136C479.393 154.756 478.757 154.744 477.189 154.926C475.536 155.119 473.842 155.551 473.842 157.534C473.842 159.25 475.132 160.193 476.791 160.193ZM477.161 158.83C476.2 158.83 475.507 158.398 475.507 157.557C475.507 156.648 476.314 156.324 477.297 156.193C477.848 156.119 479.155 155.972 479.399 155.727V156.852C479.399 157.886 478.575 158.83 477.161 158.83ZM485.06 154.818C485.06 153.426 485.912 152.631 487.094 152.631C488.247 152.631 488.946 153.386 488.946 154.653V160H490.645V154.449C490.645 152.29 489.457 151.159 487.673 151.159C486.361 151.159 485.503 151.767 485.099 152.693H484.991V151.273H483.361V160H485.06V154.818ZM497.294 160H498.953V158.642H499.095C499.402 159.199 500.027 160.17 501.618 160.17C503.732 160.17 505.266 158.477 505.266 155.653C505.266 152.824 503.709 151.159 501.601 151.159C499.982 151.159 499.396 152.148 499.095 152.688H498.993V148.364H497.294V160ZM498.959 155.636C498.959 153.812 499.754 152.602 501.237 152.602C502.777 152.602 503.55 153.903 503.55 155.636C503.55 157.386 502.754 158.722 501.237 158.722C499.777 158.722 498.959 157.472 498.959 155.636ZM510.935 160.176C512.838 160.176 514.185 159.239 514.571 157.818L512.963 157.528C512.656 158.352 511.918 158.773 510.952 158.773C509.497 158.773 508.52 157.83 508.474 156.148H514.679V155.545C514.679 152.392 512.793 151.159 510.815 151.159C508.384 151.159 506.781 153.011 506.781 155.693C506.781 158.403 508.361 160.176 510.935 160.176ZM508.48 154.875C508.548 153.636 509.446 152.562 510.827 152.562C512.145 152.562 513.009 153.54 513.014 154.875H508.48ZM520.798 163.273H522.497V158.642H522.599C522.906 159.199 523.531 160.17 525.122 160.17C527.236 160.17 528.77 158.477 528.77 155.653C528.77 152.824 527.213 151.159 525.105 151.159C523.486 151.159 522.901 152.148 522.599 152.688H522.457V151.273H520.798V163.273ZM522.463 155.636C522.463 153.812 523.259 152.602 524.741 152.602C526.281 152.602 527.054 153.903 527.054 155.636C527.054 157.386 526.259 158.722 524.741 158.722C523.281 158.722 522.463 157.472 522.463 155.636ZM530.673 160H532.372V154.67C532.372 153.528 533.253 152.705 534.457 152.705C534.81 152.705 535.207 152.767 535.344 152.807V151.182C535.173 151.159 534.838 151.142 534.622 151.142C533.599 151.142 532.724 151.722 532.406 152.659H532.315V151.273H530.673V160ZM540.263 160.176C542.166 160.176 543.513 159.239 543.899 157.818L542.291 157.528C541.984 158.352 541.246 158.773 540.28 158.773C538.825 158.773 537.848 157.83 537.803 156.148H544.007V155.545C544.007 152.392 542.121 151.159 540.143 151.159C537.712 151.159 536.109 153.011 536.109 155.693C536.109 158.403 537.689 160.176 540.263 160.176ZM537.808 154.875C537.876 153.636 538.774 152.562 540.155 152.562C541.473 152.562 542.337 153.54 542.342 154.875H537.808ZM549.966 151.273H548.176V149.182H546.477V151.273H545.199V152.636H546.477V157.79C546.472 159.375 547.682 160.142 549.023 160.114C549.562 160.108 549.926 160.006 550.125 159.932L549.818 158.528C549.705 158.551 549.494 158.602 549.222 158.602C548.67 158.602 548.176 158.42 548.176 157.438V152.636H549.966V151.273ZM555.919 151.273H554.129V149.182H552.43V151.273H551.152V152.636H552.43V157.79C552.425 159.375 553.635 160.142 554.976 160.114C555.516 160.108 555.879 160.006 556.078 159.932L555.771 158.528C555.658 158.551 555.447 158.602 555.175 158.602C554.624 158.602 554.129 158.42 554.129 157.438V152.636H555.919V151.273ZM558.872 163.273C560.276 163.273 561.162 162.54 561.668 161.165L565.276 151.29L563.44 151.273L561.23 158.045H561.139L558.929 151.273H557.111L560.304 160.114L560.094 160.693C559.662 161.852 559.054 161.949 558.122 161.693L557.713 163.085C557.918 163.176 558.361 163.273 558.872 163.273ZM575.185 151.273H573.395V149.182H571.696V151.273H570.418V152.636H571.696V157.79C571.69 159.375 572.901 160.142 574.241 160.114C574.781 160.108 575.145 160.006 575.344 159.932L575.037 158.528C574.923 158.551 574.713 158.602 574.44 158.602C573.889 158.602 573.395 158.42 573.395 157.438V152.636H575.185V151.273ZM580.646 160.176C583.107 160.176 584.714 158.375 584.714 155.676C584.714 152.96 583.107 151.159 580.646 151.159C578.186 151.159 576.578 152.96 576.578 155.676C576.578 158.375 578.186 160.176 580.646 160.176ZM580.652 158.75C579.044 158.75 578.294 157.347 578.294 155.67C578.294 154 579.044 152.58 580.652 152.58C582.249 152.58 582.999 154 582.999 155.67C582.999 157.347 582.249 158.75 580.652 158.75ZM592.139 156.381C592.145 157.864 591.043 158.568 590.088 158.568C589.037 158.568 588.31 157.807 588.31 156.619V151.273H586.611V156.824C586.611 158.989 587.798 160.114 589.474 160.114C590.787 160.114 591.679 159.42 592.082 158.489H592.173V160H593.844V151.273H592.139V156.381ZM599.786 163.455C602.007 163.455 603.723 162.438 603.723 160.193V151.273H602.058V152.688H601.933C601.632 152.148 601.03 151.159 599.405 151.159C597.297 151.159 595.746 152.824 595.746 155.602C595.746 158.386 597.331 159.869 599.393 159.869C600.996 159.869 601.615 158.966 601.922 158.409H602.03V160.125C602.03 161.494 601.092 162.085 599.803 162.085C598.388 162.085 597.837 161.375 597.536 160.875L596.075 161.477C596.536 162.545 597.7 163.455 599.786 163.455ZM599.768 158.46C598.251 158.46 597.462 157.295 597.462 155.58C597.462 153.903 598.234 152.602 599.768 152.602C601.251 152.602 602.047 153.812 602.047 155.58C602.047 157.381 601.234 158.46 599.768 158.46ZM607.7 154.818C607.7 153.426 608.581 152.631 609.791 152.631C610.962 152.631 611.661 153.375 611.661 154.653V160H613.359V154.449C613.359 152.273 612.166 151.159 610.371 151.159C609.013 151.159 608.195 151.75 607.786 152.693H607.678V148.364H606.001V160H607.7V154.818ZM622.401 160.193C623.844 160.193 624.656 159.46 624.98 158.807H625.048V160H626.707V154.205C626.707 151.665 624.707 151.159 623.321 151.159C621.741 151.159 620.287 151.795 619.719 153.386L621.315 153.75C621.565 153.131 622.202 152.534 623.344 152.534C624.44 152.534 625.003 153.108 625.003 154.097V154.136C625.003 154.756 624.366 154.744 622.798 154.926C621.145 155.119 619.452 155.551 619.452 157.534C619.452 159.25 620.741 160.193 622.401 160.193ZM622.77 158.83C621.81 158.83 621.116 158.398 621.116 157.557C621.116 156.648 621.923 156.324 622.906 156.193C623.457 156.119 624.764 155.972 625.009 155.727V156.852C625.009 157.886 624.185 158.83 622.77 158.83ZM633.044 151.273H631.254V149.182H629.555V151.273H628.277V152.636H629.555V157.79C629.55 159.375 630.76 160.142 632.101 160.114C632.641 160.108 633.004 160.006 633.203 159.932L632.896 158.528C632.783 158.551 632.572 158.602 632.3 158.602C631.749 158.602 631.254 158.42 631.254 157.438V152.636H633.044V151.273ZM643.232 151.273H641.442V149.182H639.743V151.273H638.464V152.636H639.743V157.79C639.737 159.375 640.947 160.142 642.288 160.114C642.828 160.108 643.192 160.006 643.391 159.932L643.084 158.528C642.97 158.551 642.76 158.602 642.487 158.602C641.936 158.602 641.442 158.42 641.442 157.438V152.636H643.232V151.273ZM645.111 160H646.81V151.273H645.111V160ZM645.969 149.926C646.554 149.926 647.043 149.472 647.043 148.915C647.043 148.358 646.554 147.898 645.969 147.898C645.378 147.898 644.895 148.358 644.895 148.915C644.895 149.472 645.378 149.926 645.969 149.926ZM649.095 160H650.794V154.619C650.794 153.443 651.618 152.625 652.584 152.625C653.527 152.625 654.18 153.25 654.18 154.199V160H655.874V154.438C655.874 153.386 656.516 152.625 657.624 152.625C658.521 152.625 659.26 153.125 659.26 154.307V160H660.959V154.148C660.959 152.153 659.845 151.159 658.266 151.159C657.01 151.159 656.067 151.761 655.646 152.693H655.555C655.175 151.739 654.374 151.159 653.209 151.159C652.055 151.159 651.197 151.733 650.834 152.693H650.726V151.273H649.095V160ZM666.997 160.176C668.901 160.176 670.247 159.239 670.634 157.818L669.026 157.528C668.719 158.352 667.98 158.773 667.014 158.773C665.56 158.773 664.582 157.83 664.537 156.148H670.741V155.545C670.741 152.392 668.855 151.159 666.878 151.159C664.446 151.159 662.844 153.011 662.844 155.693C662.844 158.403 664.423 160.176 666.997 160.176ZM664.543 154.875C664.611 153.636 665.509 152.562 666.889 152.562C668.207 152.562 669.071 153.54 669.077 154.875H664.543ZM679.166 153.403C678.814 152.045 677.751 151.159 675.865 151.159C673.893 151.159 672.496 152.199 672.496 153.744C672.496 154.983 673.246 155.807 674.882 156.17L676.359 156.494C677.2 156.682 677.592 157.057 677.592 157.602C677.592 158.278 676.871 158.807 675.757 158.807C674.74 158.807 674.087 158.369 673.882 157.511L672.24 157.761C672.524 159.307 673.808 160.176 675.768 160.176C677.876 160.176 679.337 159.057 679.337 157.477C679.337 156.244 678.553 155.483 676.95 155.114L675.564 154.795C674.604 154.568 674.189 154.244 674.195 153.653C674.189 152.983 674.916 152.506 675.882 152.506C676.939 152.506 677.428 153.091 677.626 153.676L679.166 153.403ZM682.324 160.108C682.943 160.108 683.46 159.602 683.46 158.972C683.46 158.352 682.943 157.841 682.324 157.841C681.699 157.841 681.188 158.352 681.188 158.972C681.188 159.602 681.699 160.108 682.324 160.108Z" fill="black"/>
<circle cx="88" cy="86" r="23" fill="#E9E9E9"/>
<path d="M93.4169 147H95.1374L99.8835 137.55V136.091H92.6712V137.502H98.179V137.582L93.4169 147Z" fill="#646464"/>
<path d="M96.8473 183.149C99.0739 183.149 100.709 181.817 100.704 180.006C100.709 178.627 99.8729 177.636 98.424 177.412V177.327C99.5639 177.034 100.304 176.139 100.299 174.914C100.304 173.311 98.9886 171.942 96.8899 171.942C94.8871 171.942 93.2784 173.151 93.2251 174.925H94.8178C94.8551 173.923 95.7979 173.316 96.8686 173.316C97.9819 173.316 98.7116 173.993 98.7063 174.999C98.7116 176.054 97.8647 176.746 96.6555 176.746H95.734V178.089H96.6555C98.1683 178.089 99.0419 178.856 99.0419 179.953C99.0419 181.013 98.1204 181.732 96.8366 181.732C95.6541 181.732 94.7326 181.125 94.6687 180.156H92.9961C93.0653 181.935 94.642 183.149 96.8473 183.149Z" fill="#646464"/>
<path d="M70 140.5C70 140.303 70.0388 140.108 70.1142 139.926C70.1896 139.744 70.3001 139.579 70.4393 139.439C70.5786 139.3 70.744 139.19 70.926 139.114C71.108 139.039 71.303 139 71.5 139C71.697 139 71.892 139.039 72.074 139.114C72.256 139.19 72.4214 139.3 72.5607 139.439C72.6999 139.579 72.8104 139.744 72.8858 139.926C72.9612 140.108 73 140.303 73 140.5V146.5C73 146.898 72.842 147.279 72.5607 147.561C72.2794 147.842 71.8978 148 71.5 148C71.1022 148 70.7206 147.842 70.4393 147.561C70.158 147.279 70 146.898 70 146.5V140.5ZM74 140.333V145.763C73.9998 146.135 74.1032 146.499 74.2986 146.815C74.4939 147.131 74.7735 147.387 75.106 147.553L75.156 147.578C75.7109 147.855 76.3227 148 76.943 148H82.359C82.8215 148 83.2698 147.84 83.6276 147.547C83.9853 147.254 84.2303 146.846 84.321 146.392L85.521 140.392C85.579 140.102 85.5719 139.802 85.5002 139.515C85.4285 139.228 85.294 138.961 85.1065 138.732C84.9189 138.503 84.6829 138.319 84.4155 138.192C84.148 138.066 83.8559 138 83.56 138H80V134C80 133.47 79.7893 132.961 79.4142 132.586C79.0391 132.211 78.5304 132 78 132C77.7348 132 77.4804 132.105 77.2929 132.293C77.1054 132.48 77 132.735 77 133V133.667C77 134.532 76.7193 135.375 76.2 136.067L74.8 137.933C74.2807 138.625 74 139.468 74 140.333V140.333Z" fill="#5046E4"/>
<path d="M86 178.5C86 178.898 85.842 179.279 85.5607 179.561C85.2794 179.842 84.8978 180 84.5 180C84.1022 180 83.7206 179.842 83.4393 179.561C83.158 179.279 83 178.898 83 178.5V172.5C83 172.102 83.158 171.721 83.4393 171.439C83.7206 171.158 84.1022 171 84.5 171C84.8978 171 85.2794 171.158 85.5607 171.439C85.842 171.721 86 172.102 86 172.5V178.5ZM82 178.667V173.237C82.0003 172.865 81.897 172.501 81.7018 172.185C81.5067 171.869 81.2273 171.613 80.895 171.447L80.845 171.422C80.2892 171.144 79.6763 171 79.055 171H73.64C73.1775 171 72.7292 171.16 72.3714 171.453C72.0137 171.746 71.7687 172.154 71.678 172.608L70.478 178.608C70.42 178.898 70.4271 179.198 70.4989 179.485C70.5706 179.772 70.7052 180.04 70.8929 180.268C71.0805 180.497 71.3167 180.682 71.5842 180.808C71.8518 180.935 72.1441 181 72.44 181H76V185C76 185.53 76.2107 186.039 76.5858 186.414C76.9609 186.789 77.4696 187 78 187C78.2652 187 78.5196 186.895 78.7071 186.707C78.8946 186.52 79 186.265 79 186V185.333C79 184.468 79.2807 183.625 79.8 182.933L81.2 181.067C81.7193 180.375 82 179.532 82 178.667V178.667Z" fill="#DAD8F9"/>
</svg>
