<svg width="254" height="254" viewBox="0 0 254 254" fill="none" xmlns="http://www.w3.org/2000/svg">
    <rect width="254" height="254" rx="73" fill="#4F46E5"/>
    <path d="M109.716 156.636L176.103 76.5618C180.885 70.7939 190.261 74.1754 190.261 81.6678L190.262 139.685C190.261 179.646 162.359 188.01 143.772 188.474L104.741 188.474C104.741 188.474 93.1242 174.534 109.716 156.636Z" fill="#E6E5FB"/>
    <path fill-rule="evenodd" clip-rule="evenodd" d="M127.704 76.2016L97.0138 175.585C95.6261 179.331 94.8958 182.689 94.645 185.687H151.734C165.485 175.854 177.014 158.247 164.941 129.101L142.739 75.5007C139.872 68.5786 129.915 69.0428 127.704 76.2016Z" fill="white" fill-opacity="0.44"/>
    <path fill-rule="evenodd" clip-rule="evenodd" d="M141.914 171.747H140.056V188.475H108.177L81.4461 107.833C79.0887 100.721 86.9252 94.5612 93.2791 98.5316L142.48 129.276C163.308 142.29 168.429 157.918 167.088 171.747H141.914Z" fill="#E6E5FB" fill-opacity="0.72"/>
    <path fill-rule="evenodd" clip-rule="evenodd" d="M170.522 113.42L157.144 152.06L157.144 152.06L170.522 113.42L170.522 113.42Z" fill="#E6E5FB" fill-opacity="0.72"/>
    <path fill-rule="evenodd" clip-rule="evenodd" d="M60.2977 143.742L118.407 145.771C145.147 146.705 157.293 159.645 162.346 173.676C155.564 175.462 145.776 177.811 135.657 180.111H131.692V181.006C115.113 184.722 98.5796 188.097 93.713 188.475H92.1038C87.9469 188.129 85.1462 185.289 83.2687 183.386C82.6976 182.807 82.212 182.314 81.7996 182.005L54.6786 157.694C49.1105 152.703 52.8245 143.481 60.2977 143.742Z" fill="#D3D1FF"/>
    <path d="M110.144 162.919L190.239 118.776V139.686C190.239 177.974 164.682 188.475 141.914 188.475L92.0225 188.51C93.5094 172.154 104.104 166.171 110.144 162.919Z" fill="white"/>
    </svg>