<svg width="590" height="270" viewBox="0 0 590 270" fill="none" xmlns="http://www.w3.org/2000/svg">
<g clip-path="url(#clip0)">
<rect width="590" height="270" rx="20" fill="white"/>
<path d="M65.9975 48H68.7408V41.608H72.4695C76.6864 41.608 78.7727 39.06 78.7727 35.7042C78.7727 32.3572 76.7042 29.8182 72.4783 29.8182H65.9975V48ZM68.7408 39.282V32.1708H72.1854C74.902 32.1708 76.0117 33.6445 76.0117 35.7042C76.0117 37.7638 74.902 39.282 72.2209 39.282H68.7408ZM90.4138 42.3448C90.4227 44.6619 88.7004 45.7628 87.2089 45.7628C85.5665 45.7628 84.4301 44.5732 84.4301 42.7177V34.3636H81.7757V43.0373C81.7757 46.4197 83.6311 48.1776 86.2501 48.1776C88.3009 48.1776 89.6947 47.0945 90.325 45.6385H90.4671V48H93.0771V34.3636H90.4138V42.3448ZM96.8569 48H99.4492V45.8782H99.6712C100.151 46.7482 101.127 48.2663 103.613 48.2663C106.915 48.2663 109.312 45.6207 109.312 41.2085C109.312 36.7873 106.88 34.1861 103.586 34.1861C101.056 34.1861 100.142 35.7308 99.6712 36.5742H99.5114V29.8182H96.8569V48ZM99.4581 41.1818C99.4581 38.332 100.701 36.4411 103.018 36.4411C105.424 36.4411 106.631 38.4741 106.631 41.1818C106.631 43.9162 105.388 46.0025 103.018 46.0025C100.737 46.0025 99.4581 44.0494 99.4581 41.1818ZM114.948 29.8182H112.293V48H114.948V29.8182ZM118.519 48H121.173V34.3636H118.519V48ZM119.859 32.2596C120.774 32.2596 121.537 31.5494 121.537 30.6793C121.537 29.8093 120.774 29.0902 119.859 29.0902C118.936 29.0902 118.181 29.8093 118.181 30.6793C118.181 31.5494 118.936 32.2596 119.859 32.2596ZM130.488 48.2752C133.711 48.2752 135.797 46.3398 136.09 43.6854H133.507C133.169 45.1591 132.024 46.0291 130.506 46.0291C128.26 46.0291 126.813 44.1559 126.813 41.1818C126.813 38.261 128.287 36.4233 130.506 36.4233C132.193 36.4233 133.223 37.4886 133.507 38.767H136.09C135.806 36.0149 133.56 34.1861 130.462 34.1861C126.618 34.1861 124.132 37.0803 124.132 41.244C124.132 45.3544 126.529 48.2752 130.488 48.2752ZM148.2 39.9034C148.2 37.7283 149.576 36.4854 151.467 36.4854C153.296 36.4854 154.388 37.6484 154.388 39.646V48H157.042V39.3263C157.042 35.9261 155.178 34.1861 152.372 34.1861C150.25 34.1861 148.972 35.1094 148.333 36.5831H148.164V29.8182H145.545V48H148.2V39.9034ZM166.461 48.2752C169.435 48.2752 171.54 46.8104 172.143 44.5909L169.631 44.1381C169.151 45.4254 167.997 46.0824 166.488 46.0824C164.215 46.0824 162.688 44.6087 162.617 41.9808H172.312V41.0398C172.312 36.1126 169.364 34.1861 166.275 34.1861C162.475 34.1861 159.972 37.0803 159.972 41.2706C159.972 45.5053 162.44 48.2752 166.461 48.2752ZM162.626 39.9922C162.733 38.0568 164.135 36.3789 166.293 36.3789C168.352 36.3789 169.702 37.9059 169.711 39.9922H162.626ZM179.225 48.3018C181.48 48.3018 182.75 47.1566 183.256 46.1357H183.363V48H185.955V38.9446C185.955 34.9762 182.83 34.1861 180.664 34.1861C178.196 34.1861 175.923 35.1804 175.035 37.6662L177.53 38.2344C177.92 37.2667 178.915 36.3345 180.699 36.3345C182.413 36.3345 183.292 37.2312 183.292 38.7759V38.8381C183.292 39.8058 182.297 39.788 179.847 40.0721C177.263 40.3739 174.618 41.0487 174.618 44.147C174.618 46.8281 176.633 48.3018 179.225 48.3018ZM179.803 46.1712C178.302 46.1712 177.219 45.4964 177.219 44.1825C177.219 42.7621 178.48 42.256 180.016 42.0518C180.877 41.9364 182.919 41.7056 183.3 41.3239V43.0817C183.3 44.6974 182.013 46.1712 179.803 46.1712ZM192.145 29.8182H189.491V48H192.145V29.8182Z" fill="#161616"/>
<rect x="19" y="73" width="546" height="82" rx="15" fill="#5046E4"/>
<rect x="43" y="92" width="81" height="43" rx="11" fill="white" fill-opacity="0.22"/>
<path d="M84.823 121.199C88.09 121.199 90.4267 119.402 90.4196 116.916C90.4267 115.105 89.2761 113.812 87.1383 113.543V113.429C88.7647 113.138 89.8869 111.987 89.8798 110.354C89.8869 108.06 87.877 106.256 84.8656 106.256C81.8826 106.256 79.6383 108.003 79.5957 110.517H82.5431C82.5787 109.409 83.5943 108.692 84.8514 108.692C86.0943 108.692 86.9252 109.445 86.9181 110.538C86.9252 111.682 85.9522 112.456 84.5531 112.456H83.1966V114.714H84.5531C86.2008 114.714 87.2306 115.538 87.2235 116.71C87.2306 117.868 86.2363 118.663 84.8301 118.663C83.4735 118.663 82.4579 117.953 82.4011 116.888H79.3045C79.3542 119.43 81.627 121.199 84.823 121.199ZM94.0169 121.185C94.926 121.185 95.7143 120.425 95.7214 119.48C95.7143 118.55 94.926 117.79 94.0169 117.79C93.0794 117.79 92.3052 118.55 92.3123 119.48C92.3052 120.425 93.0794 121.185 94.0169 121.185ZM103.104 121.199C106.371 121.199 108.708 119.402 108.701 116.916C108.708 115.105 107.557 113.812 105.42 113.543V113.429C107.046 113.138 108.168 111.987 108.161 110.354C108.168 108.06 106.158 106.256 103.147 106.256C100.164 106.256 97.9196 108.003 97.877 110.517H100.824C100.86 109.409 101.876 108.692 103.133 108.692C104.376 108.692 105.206 109.445 105.199 110.538C105.206 111.682 104.233 112.456 102.834 112.456H101.478V114.714H102.834C104.482 114.714 105.512 115.538 105.505 116.71C105.512 117.868 104.518 118.663 103.111 118.663C101.755 118.663 100.739 117.953 100.682 116.888H97.5858C97.6355 119.43 99.9082 121.199 103.104 121.199Z" fill="white"/>
<path d="M62.9538 106.22C63.2838 105.207 64.7171 105.207 65.046 106.22L66.223 109.841C66.2949 110.061 66.4347 110.254 66.6224 110.39C66.8101 110.526 67.0361 110.6 67.268 110.6H71.0762C72.1421 110.6 72.5843 111.964 71.723 112.591L68.643 114.828C68.455 114.965 68.3149 115.157 68.243 115.378C68.1711 115.599 68.1709 115.837 68.2426 116.058L69.4196 119.679C69.7496 120.692 68.5891 121.536 67.7256 120.909L64.6456 118.672C64.4577 118.535 64.2315 118.462 63.9994 118.462C63.7672 118.462 63.541 118.535 63.3531 118.672L60.2731 120.909C59.4107 121.536 58.2513 120.692 58.5802 119.679L59.7572 116.058C59.8289 115.837 59.8288 115.599 59.7569 115.378C59.6849 115.157 59.5449 114.965 59.3568 114.828L56.2779 112.592C55.4166 111.965 55.8599 110.601 56.9247 110.601H60.7318C60.964 110.601 61.1902 110.528 61.3781 110.391C61.566 110.255 61.706 110.063 61.7779 109.842L62.9549 106.221L62.9538 106.22Z" fill="white"/>
<path d="M146.023 101.03H147.374C147.08 99.3295 145.627 98.1534 143.743 98.1534C141.485 98.1534 139.836 99.8537 139.836 102.641C139.836 105.402 141.438 107.119 143.803 107.119C145.921 107.119 147.434 105.73 147.434 103.527V102.534H144.003V103.621H146.16C146.13 105.027 145.201 105.918 143.803 105.918C142.265 105.918 141.144 104.754 141.144 102.632C141.144 100.518 142.273 99.3551 143.752 99.3551C144.911 99.3551 145.695 99.9943 146.023 101.03ZM150.277 98.2727H149.003V107H150.277V98.2727ZM154.748 107.132C156.594 107.132 157.8 105.781 157.8 103.757C157.8 101.72 156.594 100.369 154.748 100.369C152.903 100.369 151.697 101.72 151.697 103.757C151.697 105.781 152.903 107.132 154.748 107.132ZM154.753 106.062C153.547 106.062 152.984 105.01 152.984 103.753C152.984 102.5 153.547 101.435 154.753 101.435C155.95 101.435 156.513 102.5 156.513 103.753C156.513 105.01 155.95 106.062 154.753 106.062ZM159.324 107H160.568V105.982H160.675C160.905 106.399 161.374 107.128 162.567 107.128C164.152 107.128 165.303 105.858 165.303 103.74C165.303 101.618 164.135 100.369 162.554 100.369C161.34 100.369 160.901 101.111 160.675 101.516H160.598V98.2727H159.324V107ZM160.573 103.727C160.573 102.359 161.169 101.452 162.281 101.452C163.436 101.452 164.016 102.428 164.016 103.727C164.016 105.04 163.419 106.041 162.281 106.041C161.186 106.041 160.573 105.104 160.573 103.727ZM168.638 107.145C169.721 107.145 170.33 106.595 170.573 106.105H170.624V107H171.868V102.653C171.868 100.749 170.368 100.369 169.329 100.369C168.144 100.369 167.053 100.847 166.627 102.04L167.824 102.312C168.012 101.848 168.489 101.401 169.346 101.401C170.168 101.401 170.59 101.831 170.59 102.572V102.602C170.59 103.067 170.113 103.058 168.937 103.195C167.697 103.339 166.427 103.663 166.427 105.151C166.427 106.438 167.394 107.145 168.638 107.145ZM168.915 106.122C168.195 106.122 167.675 105.798 167.675 105.168C167.675 104.486 168.28 104.243 169.018 104.145C169.431 104.089 170.411 103.979 170.594 103.795V104.639C170.594 105.415 169.976 106.122 168.915 106.122ZM174.84 98.2727H173.566V107H174.84V98.2727ZM208.555 100.455H207.212V98.8864H205.938V100.455H204.979V101.477H205.938V105.342C205.934 106.531 206.841 107.107 207.847 107.085C208.252 107.081 208.525 107.004 208.674 106.949L208.444 105.896C208.358 105.913 208.201 105.952 207.996 105.952C207.583 105.952 207.212 105.815 207.212 105.078V101.477H208.555V100.455ZM211.379 103.114C211.379 102.07 212.039 101.473 212.947 101.473C213.825 101.473 214.349 102.031 214.349 102.99V107H215.623V102.837C215.623 101.205 214.728 100.369 213.382 100.369C212.363 100.369 211.749 100.812 211.443 101.52H211.362V98.2727H210.105V107H211.379V103.114ZM222.404 107.145C223.486 107.145 224.096 106.595 224.339 106.105H224.39V107H225.634V102.653C225.634 100.749 224.134 100.369 223.094 100.369C221.91 100.369 220.819 100.847 220.393 102.04L221.59 102.312C221.778 101.848 222.255 101.401 223.111 101.401C223.934 101.401 224.356 101.831 224.356 102.572V102.602C224.356 103.067 223.878 103.058 222.702 103.195C221.462 103.339 220.192 103.663 220.192 105.151C220.192 106.438 221.16 107.145 222.404 107.145ZM222.681 106.122C221.961 106.122 221.441 105.798 221.441 105.168C221.441 104.486 222.046 104.243 222.783 104.145C223.197 104.089 224.177 103.979 224.36 103.795V104.639C224.36 105.415 223.742 106.122 222.681 106.122ZM228.605 103.114C228.605 102.07 229.244 101.473 230.131 101.473C230.996 101.473 231.52 102.04 231.52 102.99V107H232.794V102.837C232.794 101.217 231.904 100.369 230.566 100.369C229.581 100.369 228.938 100.825 228.635 101.52H228.554V100.455H227.331V107H228.605V103.114ZM236.953 107.128C238.146 107.128 238.615 106.399 238.845 105.982H238.952V107H240.196V98.2727H238.922V101.516H238.845C238.615 101.111 238.181 100.369 236.962 100.369C235.381 100.369 234.218 101.618 234.218 103.74C234.218 105.858 235.364 107.128 236.953 107.128ZM237.235 106.041C236.097 106.041 235.504 105.04 235.504 103.727C235.504 102.428 236.084 101.452 237.235 101.452C238.347 101.452 238.943 102.359 238.943 103.727C238.943 105.104 238.334 106.041 237.235 106.041ZM245.293 107H250.816V105.866H246.61V103.195H250.479V102.065H246.61V99.4062H250.764V98.2727H245.293V107ZM255.178 107.132C256.725 107.132 257.726 106.203 257.867 104.929H256.627C256.465 105.636 255.915 106.054 255.187 106.054C254.108 106.054 253.414 105.155 253.414 103.727C253.414 102.325 254.121 101.443 255.187 101.443C255.996 101.443 256.491 101.955 256.627 102.568H257.867C257.731 101.247 256.653 100.369 255.165 100.369C253.32 100.369 252.127 101.759 252.127 103.757C252.127 105.73 253.278 107.132 255.178 107.132ZM261.987 107.132C263.832 107.132 265.038 105.781 265.038 103.757C265.038 101.72 263.832 100.369 261.987 100.369C260.142 100.369 258.936 101.72 258.936 103.757C258.936 105.781 260.142 107.132 261.987 107.132ZM261.991 106.062C260.785 106.062 260.222 105.01 260.222 103.753C260.222 102.5 260.785 101.435 261.991 101.435C263.188 101.435 263.751 102.5 263.751 103.753C263.751 105.01 263.188 106.062 261.991 106.062ZM267.734 103.114C267.734 102.07 268.373 101.473 269.26 101.473C270.125 101.473 270.649 102.04 270.649 102.99V107H271.923V102.837C271.923 101.217 271.032 100.369 269.694 100.369C268.71 100.369 268.067 100.825 267.764 101.52H267.683V100.455H266.46V107H267.734V103.114ZM276.389 107.132C278.234 107.132 279.44 105.781 279.44 103.757C279.44 101.72 278.234 100.369 276.389 100.369C274.544 100.369 273.338 101.72 273.338 103.757C273.338 105.781 274.544 107.132 276.389 107.132ZM276.393 106.062C275.187 106.062 274.625 105.01 274.625 103.753C274.625 102.5 275.187 101.435 276.393 101.435C277.591 101.435 278.153 102.5 278.153 103.753C278.153 105.01 277.591 106.062 276.393 106.062ZM280.862 107H282.137V102.964C282.137 102.082 282.754 101.469 283.479 101.469C284.186 101.469 284.676 101.938 284.676 102.649V107H285.946V102.828C285.946 102.04 286.428 101.469 287.259 101.469C287.932 101.469 288.486 101.844 288.486 102.73V107H289.76V102.611C289.76 101.115 288.925 100.369 287.74 100.369C286.798 100.369 286.091 100.821 285.776 101.52H285.708C285.422 100.804 284.821 100.369 283.948 100.369C283.083 100.369 282.439 100.8 282.166 101.52H282.085V100.455H280.862V107ZM291.468 107H292.742V100.455H291.468V107ZM292.111 99.4446C292.55 99.4446 292.917 99.1037 292.917 98.6861C292.917 98.2685 292.55 97.9233 292.111 97.9233C291.668 97.9233 291.306 98.2685 291.306 98.6861C291.306 99.1037 291.668 99.4446 292.111 99.4446ZM297.213 107.132C298.76 107.132 299.762 106.203 299.902 104.929H298.662C298.5 105.636 297.95 106.054 297.222 106.054C296.144 106.054 295.449 105.155 295.449 103.727C295.449 102.325 296.156 101.443 297.222 101.443C298.031 101.443 298.526 101.955 298.662 102.568H299.902C299.766 101.247 298.688 100.369 297.2 100.369C295.355 100.369 294.162 101.759 294.162 103.757C294.162 105.73 295.313 107.132 297.213 107.132ZM306.17 102.053C305.905 101.034 305.108 100.369 303.694 100.369C302.215 100.369 301.167 101.149 301.167 102.308C301.167 103.237 301.729 103.855 302.956 104.128L304.064 104.371C304.695 104.511 304.989 104.793 304.989 105.202C304.989 105.709 304.448 106.105 303.613 106.105C302.85 106.105 302.36 105.777 302.206 105.134L300.975 105.321C301.188 106.48 302.151 107.132 303.621 107.132C305.202 107.132 306.297 106.293 306.297 105.108C306.297 104.183 305.709 103.612 304.508 103.335L303.468 103.097C302.748 102.926 302.437 102.683 302.441 102.24C302.437 101.737 302.982 101.379 303.706 101.379C304.499 101.379 304.866 101.818 305.015 102.257L306.17 102.053Z" fill="#DAD8F9"/>
<path d="M179.832 107H181.149V103.195H185.499V107H186.82V98.2727H185.499V102.065H181.149V98.2727H179.832V107ZM191.457 107.132C192.884 107.132 193.894 106.429 194.184 105.364L192.978 105.146C192.748 105.764 192.194 106.08 191.47 106.08C190.379 106.08 189.646 105.372 189.612 104.111H194.265V103.659C194.265 101.294 192.85 100.369 191.367 100.369C189.544 100.369 188.342 101.759 188.342 103.77C188.342 105.803 189.526 107.132 191.457 107.132ZM189.616 103.156C189.667 102.227 190.34 101.422 191.376 101.422C192.365 101.422 193.012 102.155 193.017 103.156H189.616ZM197.584 107.145C198.666 107.145 199.275 106.595 199.518 106.105H199.569V107H200.814V102.653C200.814 100.749 199.314 100.369 198.274 100.369C197.089 100.369 195.998 100.847 195.572 102.04L196.77 102.312C196.957 101.848 197.434 101.401 198.291 101.401C199.113 101.401 199.535 101.831 199.535 102.572V102.602C199.535 103.067 199.058 103.058 197.882 103.195C196.642 103.339 195.372 103.663 195.372 105.151C195.372 106.438 196.339 107.145 197.584 107.145ZM197.861 106.122C197.14 106.122 196.621 105.798 196.621 105.168C196.621 104.486 197.226 104.243 197.963 104.145C198.376 104.089 199.356 103.979 199.54 103.795V104.639C199.54 105.415 198.922 106.122 197.861 106.122ZM203.785 98.2727H202.511V107H203.785V98.2727Z" fill="white"/>
<path d="M178.873 109.399H204.642V110.328H178.873V109.399Z" fill="white"/>
<path d="M140.653 129H143.024V124.577H145.53C148.553 124.577 150.177 122.761 150.177 120.243C150.177 117.744 148.572 115.909 145.562 115.909H140.653V129ZM143.024 122.627V117.891H145.197C146.974 117.891 147.76 118.849 147.76 120.243C147.76 121.636 146.974 122.627 145.21 122.627H143.024ZM152.237 129H154.608V123.439H160.674V129H163.052V115.909H160.674V121.451H154.608V115.909H152.237V129ZM175.293 115.909H173.036L169.783 117.999V120.173L172.844 118.217H172.921V129H175.293V115.909ZM178.616 129H187.591V127.018H181.889V126.929L184.146 124.634C186.69 122.192 187.393 121.004 187.393 119.527C187.393 117.335 185.609 115.73 182.976 115.73C180.381 115.73 178.54 117.341 178.54 119.827H180.796C180.796 118.491 181.64 117.654 182.944 117.654C184.19 117.654 185.117 118.415 185.117 119.648C185.117 120.741 184.452 121.521 183.161 122.832L178.616 127.287V129ZM194.635 129.249C197.793 129.256 199.678 126.763 199.678 122.467C199.678 118.197 197.78 115.73 194.635 115.73C191.49 115.73 189.598 118.191 189.592 122.467C189.592 126.756 191.477 129.249 194.635 129.249ZM194.635 127.249C193.005 127.249 191.982 125.612 191.989 122.467C191.995 119.348 193.011 117.705 194.635 117.705C196.265 117.705 197.281 119.348 197.288 122.467C197.288 125.612 196.271 127.249 194.635 127.249Z" fill="white"/>
<rect x="19" y="163" width="546" height="82" rx="15" fill="#F9F9F9"/>
<rect x="43" y="182" width="81" height="43" rx="11" fill="#D3F1E6"/>
<path d="M79.0213 208.443H86.0028V211H88.9432V208.443H90.7472V205.979H88.9432V196.455H85.0938L79.0213 206.021V208.443ZM86.0597 205.979H82.1179V205.865L85.946 199.807H86.0597V205.979ZM94.3196 211.185C95.2287 211.185 96.017 210.425 96.0241 209.48C96.017 208.55 95.2287 207.79 94.3196 207.79C93.3821 207.79 92.608 208.55 92.6151 209.48C92.608 210.425 93.3821 211.185 94.3196 211.185ZM103.32 211.199C106.601 211.199 108.959 209.445 108.966 207.087C108.959 205.268 107.56 203.784 105.813 203.493V203.393C107.333 203.081 108.419 201.767 108.426 200.169C108.419 197.918 106.26 196.256 103.32 196.256C100.373 196.256 98.2134 197.918 98.2205 200.169C98.2134 201.76 99.2859 203.081 100.834 203.393V203.493C99.0586 203.784 97.6737 205.268 97.6808 207.087C97.6737 209.445 100.039 211.199 103.32 211.199ZM103.32 208.94C101.857 208.94 100.877 208.074 100.877 206.845C100.877 205.588 101.907 204.679 103.32 204.679C104.726 204.679 105.763 205.588 105.763 206.845C105.763 208.081 104.776 208.94 103.32 208.94ZM103.32 202.442C102.091 202.442 101.218 201.639 101.218 200.489C101.218 199.352 102.077 198.571 103.32 198.571C104.556 198.571 105.422 199.359 105.422 200.489C105.422 201.639 104.542 202.442 103.32 202.442Z" fill="#177E5A"/>
<path d="M62.9538 196.22C63.2838 195.207 64.7171 195.207 65.046 196.22L66.223 199.841C66.2949 200.061 66.4347 200.254 66.6224 200.39C66.8101 200.526 67.0361 200.6 67.268 200.6H71.0762C72.1421 200.6 72.5843 201.964 71.723 202.591L68.643 204.828C68.455 204.965 68.3149 205.157 68.243 205.378C68.1711 205.599 68.1709 205.837 68.2426 206.058L69.4196 209.679C69.7496 210.692 68.5891 211.536 67.7256 210.909L64.6456 208.672C64.4577 208.535 64.2315 208.462 63.9994 208.462C63.7672 208.462 63.541 208.535 63.3531 208.672L60.2731 210.909C59.4107 211.536 58.2513 210.692 58.5802 209.679L59.7572 206.058C59.8289 205.837 59.8288 205.599 59.7569 205.378C59.6849 205.157 59.5449 204.965 59.3568 204.828L56.2779 202.592C55.4166 201.965 55.8599 200.601 56.9247 200.601H60.7318C60.964 200.601 61.1902 200.528 61.3781 200.391C61.566 200.255 61.706 200.063 61.7779 199.842L62.9549 196.221L62.9538 196.22Z" fill="#177E5A"/>
<path d="M141.276 188.273H139.959V197H141.276V188.273ZM144.365 193.114C144.365 192.07 145.004 191.473 145.891 191.473C146.756 191.473 147.28 192.04 147.28 192.99V197H148.554V192.837C148.554 191.217 147.663 190.369 146.325 190.369C145.341 190.369 144.697 190.825 144.395 191.52H144.314V190.455H143.091V197H144.365V193.114ZM153.318 190.455H151.976V188.886H150.702V190.455H149.743V191.477H150.702V195.342C150.697 196.531 151.605 197.107 152.611 197.085C153.016 197.081 153.288 197.004 153.438 196.949L153.207 195.896C153.122 195.913 152.964 195.952 152.76 195.952C152.347 195.952 151.976 195.815 151.976 195.078V191.477H153.318V190.455ZM154.728 197H156.002V193.003C156.002 192.146 156.662 191.528 157.566 191.528C157.83 191.528 158.128 191.575 158.23 191.605V190.386C158.103 190.369 157.851 190.357 157.689 190.357C156.922 190.357 156.266 190.791 156.027 191.494H155.959V190.455H154.728V197ZM161.856 197.132C163.701 197.132 164.907 195.781 164.907 193.757C164.907 191.72 163.701 190.369 161.856 190.369C160.011 190.369 158.805 191.72 158.805 193.757C158.805 195.781 160.011 197.132 161.856 197.132ZM161.86 196.062C160.654 196.062 160.092 195.01 160.092 193.753C160.092 192.5 160.654 191.435 161.86 191.435C163.058 191.435 163.62 192.5 163.62 193.753C163.62 195.01 163.058 196.062 161.86 196.062ZM168.779 197.128C169.973 197.128 170.441 196.399 170.672 195.982H170.778V197H172.022V188.273H170.748V191.516H170.672C170.441 191.111 170.007 190.369 168.788 190.369C167.207 190.369 166.044 191.618 166.044 193.74C166.044 195.858 167.19 197.128 168.779 197.128ZM169.061 196.041C167.923 196.041 167.331 195.04 167.331 193.727C167.331 192.428 167.91 191.452 169.061 191.452C170.173 191.452 170.77 192.359 170.77 193.727C170.77 195.104 170.16 196.041 169.061 196.041ZM177.987 194.286C177.991 195.398 177.165 195.926 176.449 195.926C175.661 195.926 175.115 195.355 175.115 194.464V190.455H173.841V194.618C173.841 196.241 174.732 197.085 175.989 197.085C176.973 197.085 177.642 196.565 177.945 195.866H178.013V197H179.266V190.455H177.987V194.286ZM183.735 197.132C185.282 197.132 186.283 196.203 186.424 194.929H185.184C185.022 195.636 184.472 196.054 183.743 196.054C182.665 196.054 181.971 195.155 181.971 193.727C181.971 192.325 182.678 191.443 183.743 191.443C184.553 191.443 185.047 191.955 185.184 192.568H186.424C186.287 191.247 185.209 190.369 183.722 190.369C181.877 190.369 180.684 191.759 180.684 193.757C180.684 195.73 181.834 197.132 183.735 197.132ZM190.842 190.455H189.499V188.886H188.225V190.455H187.266V191.477H188.225V195.342C188.221 196.531 189.129 197.107 190.134 197.085C190.539 197.081 190.812 197.004 190.961 196.949L190.731 195.896C190.646 195.913 190.488 195.952 190.283 195.952C189.87 195.952 189.499 195.815 189.499 195.078V191.477H190.842V190.455ZM192.251 197H193.525V190.455H192.251V197ZM192.895 189.445C193.333 189.445 193.7 189.104 193.7 188.686C193.7 188.268 193.333 187.923 192.895 187.923C192.451 187.923 192.089 188.268 192.089 188.686C192.089 189.104 192.451 189.445 192.895 189.445ZM197.996 197.132C199.842 197.132 201.048 195.781 201.048 193.757C201.048 191.72 199.842 190.369 197.996 190.369C196.151 190.369 194.945 191.72 194.945 193.757C194.945 195.781 196.151 197.132 197.996 197.132ZM198.001 196.062C196.795 196.062 196.232 195.01 196.232 193.753C196.232 192.5 196.795 191.435 198.001 191.435C199.198 191.435 199.761 192.5 199.761 193.753C199.761 195.01 199.198 196.062 198.001 196.062ZM203.744 193.114C203.744 192.07 204.383 191.473 205.27 191.473C206.135 191.473 206.659 192.04 206.659 192.99V197H207.933V192.837C207.933 191.217 207.042 190.369 205.704 190.369C204.72 190.369 204.076 190.825 203.774 191.52H203.693V190.455H202.47V197H203.744V193.114ZM215.873 190.455H214.531V188.886H213.256V190.455H212.298V191.477H213.256V195.342C213.252 196.531 214.16 197.107 215.165 197.085C215.57 197.081 215.843 197.004 215.992 196.949L215.762 195.896C215.677 195.913 215.519 195.952 215.315 195.952C214.901 195.952 214.531 195.815 214.531 195.078V191.477H215.873V190.455ZM219.969 197.132C221.814 197.132 223.02 195.781 223.02 193.757C223.02 191.72 221.814 190.369 219.969 190.369C218.124 190.369 216.918 191.72 216.918 193.757C216.918 195.781 218.124 197.132 219.969 197.132ZM219.973 196.062C218.767 196.062 218.205 195.01 218.205 193.753C218.205 192.5 218.767 191.435 219.973 191.435C221.171 191.435 221.733 192.5 221.733 193.753C221.733 195.01 221.171 196.062 219.973 196.062ZM227.721 197H229.037V193.932H230.827C232.851 193.932 233.853 192.709 233.853 191.098C233.853 189.491 232.86 188.273 230.831 188.273H227.721V197ZM229.037 192.815V189.402H230.691C231.995 189.402 232.527 190.109 232.527 191.098C232.527 192.087 231.995 192.815 230.708 192.815H229.037ZM239.44 194.286C239.445 195.398 238.618 195.926 237.902 195.926C237.114 195.926 236.568 195.355 236.568 194.464V190.455H235.294V194.618C235.294 196.241 236.185 197.085 237.442 197.085C238.426 197.085 239.095 196.565 239.398 195.866H239.466V197H240.719V190.455H239.44V194.286ZM242.533 197H243.777V195.982H243.884C244.114 196.399 244.583 197.128 245.776 197.128C247.361 197.128 248.512 195.858 248.512 193.74C248.512 191.618 247.344 190.369 245.763 190.369C244.549 190.369 244.11 191.111 243.884 191.516H243.807V188.273H242.533V197ZM243.782 193.727C243.782 192.359 244.378 191.452 245.49 191.452C246.645 191.452 247.225 192.428 247.225 193.727C247.225 195.04 246.628 196.041 245.49 196.041C244.395 196.041 243.782 195.104 243.782 193.727ZM251.217 188.273H249.942V197H251.217V188.273ZM252.931 197H254.205V190.455H252.931V197ZM253.574 189.445C254.013 189.445 254.38 189.104 254.38 188.686C254.38 188.268 254.013 187.923 253.574 187.923C253.131 187.923 252.769 188.268 252.769 188.686C252.769 189.104 253.131 189.445 253.574 189.445ZM258.676 197.132C260.223 197.132 261.224 196.203 261.365 194.929H260.125C259.963 195.636 259.413 196.054 258.685 196.054C257.607 196.054 256.912 195.155 256.912 193.727C256.912 192.325 257.619 191.443 258.685 191.443C259.494 191.443 259.989 191.955 260.125 192.568H261.365C261.229 191.247 260.151 190.369 258.663 190.369C256.818 190.369 255.625 191.759 255.625 193.757C255.625 195.73 256.776 197.132 258.676 197.132ZM294.728 190.455H293.386V188.886H292.112V190.455H291.153V191.477H292.112V195.342C292.108 196.531 293.015 197.107 294.021 197.085C294.426 197.081 294.699 197.004 294.848 196.949L294.618 195.896C294.532 195.913 294.375 195.952 294.17 195.952C293.757 195.952 293.386 195.815 293.386 195.078V191.477H294.728V190.455ZM297.553 193.114C297.553 192.07 298.213 191.473 299.121 191.473C299.999 191.473 300.523 192.031 300.523 192.99V197H301.797V192.837C301.797 191.205 300.902 190.369 299.555 190.369C298.537 190.369 297.923 190.812 297.616 191.52H297.536V188.273H296.278V197H297.553V193.114Z" fill="black"/>
<path d="M266.006 197H267.322V193.195H271.673V197H272.994V188.273H271.673V192.065H267.322V188.273H266.006V197ZM277.631 197.132C279.058 197.132 280.068 196.429 280.358 195.364L279.152 195.146C278.922 195.764 278.368 196.08 277.643 196.08C276.553 196.08 275.82 195.372 275.786 194.111H280.439V193.659C280.439 191.294 279.024 190.369 277.541 190.369C275.717 190.369 274.516 191.759 274.516 193.77C274.516 195.803 275.7 197.132 277.631 197.132ZM275.79 193.156C275.841 192.227 276.514 191.422 277.55 191.422C278.538 191.422 279.186 192.155 279.19 193.156H275.79ZM283.757 197.145C284.84 197.145 285.449 196.595 285.692 196.105H285.743V197H286.988V192.653C286.988 190.749 285.488 190.369 284.448 190.369C283.263 190.369 282.172 190.847 281.746 192.04L282.944 192.312C283.131 191.848 283.608 191.401 284.465 191.401C285.287 191.401 285.709 191.831 285.709 192.572V192.602C285.709 193.067 285.232 193.058 284.056 193.195C282.816 193.339 281.546 193.663 281.546 195.151C281.546 196.438 282.513 197.145 283.757 197.145ZM284.034 196.122C283.314 196.122 282.794 195.798 282.794 195.168C282.794 194.486 283.4 194.243 284.137 194.145C284.55 194.089 285.53 193.979 285.713 193.795V194.639C285.713 195.415 285.096 196.122 284.034 196.122ZM289.959 188.273H288.685V197H289.959V188.273Z" fill="#5046E4"/>
<path d="M265.047 199.399H290.815V200.328H265.047V199.399Z" fill="#5046E4"/>
<path d="M140.406 219H142.778V214.577H145.284C148.307 214.577 149.931 212.761 149.931 210.243C149.931 207.744 148.326 205.909 145.316 205.909H140.406V219ZM142.778 212.627V207.891H144.951C146.728 207.891 147.514 208.849 147.514 210.243C147.514 211.636 146.728 212.627 144.964 212.627H142.778ZM151.99 219H154.362V213.439H160.428V219H162.806V205.909H160.428V211.451H154.362V205.909H151.99V219ZM175.047 205.909H172.79L169.537 207.999V210.173L172.598 208.217H172.675V219H175.047V205.909ZM183.209 219.249C186.367 219.256 188.252 216.763 188.252 212.467C188.252 208.197 186.354 205.73 183.209 205.73C180.064 205.73 178.172 208.191 178.166 212.467C178.166 216.756 180.051 219.249 183.209 219.249ZM183.209 217.249C181.579 217.249 180.556 215.612 180.563 212.467C180.569 209.348 181.586 207.705 183.209 207.705C184.839 207.705 185.855 209.348 185.862 212.467C185.862 215.612 184.846 217.249 183.209 217.249ZM195.17 219.179C197.996 219.198 199.894 217.255 199.888 214.666C199.894 212.192 198.13 210.403 195.835 210.403C194.429 210.403 193.189 211.087 192.562 212.212H192.473C192.479 209.457 193.489 207.782 195.305 207.782C196.43 207.782 197.19 208.434 197.433 209.438H199.766C199.485 207.322 197.778 205.73 195.305 205.73C192.16 205.73 190.172 208.351 190.172 212.825C190.165 217.626 192.658 219.166 195.17 219.179ZM195.157 217.261C193.758 217.261 192.735 216.104 192.729 214.737C192.741 213.362 193.802 212.212 195.189 212.212C196.577 212.212 197.593 213.311 197.586 214.717C197.593 216.149 196.545 217.261 195.157 217.261Z" fill="black"/>
<path fill-rule="evenodd" clip-rule="evenodd" d="M28.5999 31.8C27.3269 31.8 26.106 32.3057 25.2058 33.2059C24.3056 34.106 23.7999 35.3269 23.7999 36.6C23.7999 37.873 24.3056 39.0939 25.2058 39.9941C26.106 40.8943 27.3269 41.4 28.5999 41.4C29.8729 41.4 31.0938 40.8943 31.994 39.9941C32.8942 39.0939 33.3999 37.873 33.3999 36.6C33.3999 35.3269 32.8942 34.106 31.994 33.2059C31.0938 32.3057 29.8729 31.8 28.5999 31.8ZM21.3999 36.6C21.3998 35.4668 21.6671 34.3496 22.1801 33.3393C22.6931 32.3289 23.4374 31.4539 24.3524 30.7854C25.2673 30.1169 26.3272 29.6738 27.4457 29.4922C28.5642 29.3105 29.7098 29.3954 30.7893 29.74C31.8688 30.0846 32.8517 30.679 33.6581 31.4751C34.4645 32.2712 35.0717 33.2464 35.4301 34.3213C35.7886 35.3963 35.8883 36.5407 35.7211 37.6614C35.5539 38.7822 35.1245 39.8476 34.4679 40.7712L40.2483 46.5516C40.4669 46.7779 40.5878 47.081 40.5851 47.3956C40.5824 47.7103 40.4562 48.0113 40.2337 48.2338C40.0112 48.4562 39.7102 48.5824 39.3956 48.5852C39.0809 48.5879 38.7778 48.467 38.5515 48.2484L32.7723 42.4692C31.6951 43.2351 30.4279 43.6898 29.1095 43.7833C27.7911 43.8769 26.4724 43.6057 25.2979 42.9995C24.1233 42.3934 23.1383 41.4756 22.4508 40.3468C21.7632 39.218 21.3996 37.9217 21.3999 36.6V36.6Z" fill="#5046E4"/>
<path d="M537 114H507M530.333 107.333L537 114L530.333 107.333ZM537 114L530.333 120.667L537 114Z" stroke="white" stroke-width="2" stroke-linecap="round" stroke-linejoin="round"/>
<path d="M537 204H507M530.333 197.333L537 204L530.333 197.333ZM537 204L530.333 210.667L537 204Z" stroke="black" stroke-width="2" stroke-linecap="round" stroke-linejoin="round"/>
</g>
<defs>
<clipPath id="clip0">
<rect width="590" height="270" rx="20" fill="white"/>
</clipPath>
</defs>
</svg>
